<?xml version="1.0" encoding="utf-8"?>
<!-- Generator: Adobe Illustrator 21.0.2, SVG Export Plug-In . SVG Version: 6.00 Build 0)  -->
<svg version="1.1" id="Layer_1" xmlns="http://www.w3.org/2000/svg" xmlns:xlink="http://www.w3.org/1999/xlink" x="0px" y="0px"
	 viewBox="0 0 180.7 51.8" style="enable-background:new 0 0 180.7 51.8;" xml:space="preserve">
<style type="text/css">
	.st0{clip-path:url(#SVGID_2_);fill:#556476;}
	.st1{fill:#556476;}
	.st2{clip-path:url(#SVGID_4_);fill:#556476;}
</style>
<g>
	<defs>
		<rect id="SVGID_1_" y="0" width="180.7" height="51.8"/>
	</defs>
	<clipPath id="SVGID_2_">
		<use xlink:href="#SVGID_1_"  style="overflow:visible;"/>
	</clipPath>
	<path class="st0" d="M23.4,22.4c0,3.2-1.1,5.8-3.2,7.7c-2.1,2-5,2.9-8.7,2.9c-0.5,0-1.4,0-2.8-0.1c-1.4,0-2.4-0.1-2.9-0.1
		c-1.9,0-3.8,0-5.6,0.1C0.1,33,0,32.9,0,32.6c0-0.3,0.1-0.4,0.2-0.4c0.9-0.1,1.5-0.2,2-0.4c0.5-0.2,0.8-0.4,1-0.7
		c0.2-0.3,0.3-0.8,0.3-1.5V15c0-0.7-0.1-1.2-0.3-1.5c-0.2-0.3-0.5-0.5-0.9-0.7c-0.5-0.2-1.1-0.3-2-0.4c-0.2,0-0.2-0.1-0.2-0.4
		c0-0.3,0.1-0.4,0.2-0.4c1.2,0.1,3.1,0.1,5.6,0.1c0.5,0,1.4,0,2.9,0c1.4,0,2.3,0,2.8,0c3.5,0,6.4,1,8.6,3
		C22.3,16.6,23.4,19.2,23.4,22.4 M20,22.4c0-2.8-0.8-5.2-2.4-7.1c-1.6-1.9-3.6-2.8-6.1-2.8h-0.1l-2.9,0.1c-1.2,0-1.8,0.6-1.8,1.8
		v15.8c0,1.2,0.6,1.8,1.8,1.8l2.9,0.1c2.4,0,4.5-0.9,6.1-2.8C19.2,27.4,20,25.1,20,22.4"/>
	<path class="st0" d="M31.4,14.1c0,1-0.2,1.9-0.6,2.7c-0.4,0.8-1,1.5-1.8,2.2c-0.8,0.6-1.3,1-1.5,1c-0.1,0-0.2-0.1-0.3-0.2
		c-0.1-0.1-0.1-0.3-0.1-0.4l0-0.1c1.7-1.1,2.6-2.4,2.6-3.9c0-0.5-0.1-0.7-0.2-0.7l-0.2,0c-0.1,0.1-0.2,0.1-0.3,0.1
		c-0.5,0-0.9-0.2-1.2-0.5c-0.3-0.4-0.5-0.8-0.5-1.3c0-0.5,0.2-0.9,0.5-1.3C28,11.2,28.5,11,29,11c0.7,0,1.3,0.3,1.7,0.9
		C31.1,12.5,31.4,13.2,31.4,14.1"/>
	<path class="st0" d="M50.5,32.6c0,0.3-0.1,0.4-0.3,0.4c-0.7,0-1.5,0-2.4-0.1c-0.8-0.1-1.4-0.1-2-0.1c-0.6,0-1.4,0-2.3,0.1
		c-1,0.1-1.8,0.1-2.5,0.1c-0.2,0-0.3-0.1-0.3-0.4c0-0.3,0.1-0.4,0.2-0.4c0.9,0,1.6-0.2,2-0.4c0.4-0.2,0.6-0.5,0.6-0.9
		c0-0.3-0.1-0.7-0.3-1.3l-1.8-5.2H35l-1.8,4.8c-0.2,0.6-0.3,1.1-0.3,1.5c0,0.9,0.8,1.4,2.5,1.5c0.1,0,0.2,0.1,0.2,0.4
		c0,0.3-0.1,0.4-0.2,0.4c-0.6,0-1.3,0-2.1-0.1c-0.7-0.1-1.4-0.1-1.9-0.1c-0.4,0-1,0-1.7,0.1C29,33,28.4,33,27.9,33
		c-0.2,0-0.2-0.1-0.2-0.4c0-0.3,0.1-0.4,0.4-0.5c0.9-0.1,1.5-0.3,2-0.7c0.5-0.4,1-1.2,1.6-2.4l7.3-17.9c0.1-0.2,0.2-0.2,0.4-0.2
		c0.2,0,0.4,0.1,0.5,0.2l6.4,17.9c0.4,1,0.8,1.8,1.5,2.2c0.6,0.5,1.4,0.8,2.5,0.9C50.4,32.2,50.5,32.3,50.5,32.6 M41.1,23.4
		l-2.7-7.9l-2.9,7.9H41.1z"/>
	<path class="st0" d="M75,32.7c0,0.2-0.1,0.3-0.2,0.3c-0.6,0-1.2,0-2-0.1c-0.8-0.1-1.4-0.1-1.9-0.1c-0.5,0-1.1,0-1.8,0.1
		c-0.8,0-1.4,0.1-2,0.1c-0.1,0-0.2-0.1-0.2-0.3c0-0.2,0.1-0.3,0.2-0.3c1-0.1,1.6-0.3,2-0.5c0.3-0.2,0.5-0.7,0.5-1.4v-0.2l-0.5-12
		l-6,14.9c0,0.1-0.2,0.2-0.3,0.2c-0.2,0-0.3-0.1-0.3-0.2l-5.6-14.3l-0.9,11.4c0,0.1,0,0.3,0,0.4c0,0.6,0.2,0.9,0.6,1.2
		c0.4,0.2,1.1,0.4,2,0.5c0.1,0,0.2,0.1,0.2,0.3c0,0.2-0.1,0.3-0.2,0.3c-0.4,0-1,0-1.8-0.1c-0.7-0.1-1.2-0.1-1.6-0.1
		c-0.4,0-1,0-1.7,0.1c-0.7,0-1.2,0.1-1.6,0.1c-0.1,0-0.2-0.1-0.2-0.3c0-0.2,0.1-0.3,0.2-0.3c1-0.1,1.8-0.3,2.2-0.6
		c0.4-0.3,0.6-0.8,0.7-1.5L56,18.6c0-0.1,0-0.3,0-0.4c0-0.5-0.2-0.9-0.6-1.2c-0.4-0.2-1.1-0.4-2.1-0.5c-0.1,0-0.2-0.1-0.2-0.3
		c0-0.1,0-0.2,0.1-0.2c0-0.1,0.1-0.1,0.1-0.1c0.3,0,0.7,0,1.3,0.1c0.5,0,0.8,0.1,1.1,0.1c0.3,0,0.7,0,1.2-0.1c0.6,0,1-0.1,1.3-0.1
		l5.3,13.7L69,15.8c0.3,0,0.8,0,1.3,0.1c0.5,0,0.9,0.1,1.1,0.1c0.3,0,0.8,0,1.3-0.1c0.5,0,0.9-0.1,1.3-0.1c0.2,0,0.2,0.1,0.2,0.3
		c0,0.2-0.1,0.3-0.2,0.3c-1,0.1-1.6,0.3-2,0.5c-0.4,0.2-0.5,0.7-0.5,1.4v0.2l0.6,11.6c0,0.6,0.1,1,0.3,1.2c0.2,0.2,0.4,0.4,0.8,0.5
		c0.4,0.1,0.9,0.2,1.6,0.3C74.9,32.3,75,32.5,75,32.7"/>
	<path class="st0" d="M91.4,28c0,1.5-0.5,2.7-1.5,3.7c-1,0.9-2.4,1.4-4.1,1.4c-0.6,0-1.3,0-2.3-0.1c-1-0.1-1.7-0.1-2.2-0.1
		c-0.5,0-1.2,0-2,0.1c-0.9,0-1.6,0.1-2.2,0.1c-0.1,0-0.2-0.1-0.2-0.3c0-0.2,0.1-0.3,0.2-0.3c1-0.1,1.7-0.3,2-0.6
		c0.4-0.3,0.5-0.8,0.5-1.5V18.6c0-0.6-0.1-1-0.2-1.2c-0.1-0.2-0.4-0.4-0.8-0.6c-0.4-0.1-0.9-0.2-1.6-0.3c-0.1,0-0.2-0.1-0.2-0.3
		c0-0.2,0.1-0.3,0.2-0.3c0.6,0,1.2,0,2,0.1c0.8,0,1.4,0.1,1.9,0.1c0.5,0,1.2,0,2-0.1c0.9,0,1.6-0.1,2.1-0.1c1.5,0,2.8,0.4,3.7,1.1
		c0.9,0.7,1.4,1.7,1.4,2.9c0,0.8-0.4,1.6-1.1,2.4c-0.7,0.7-1.6,1.2-2.6,1.4c1.5,0.3,2.6,0.8,3.5,1.6C91,26,91.4,26.9,91.4,28
		 M87.6,19.8c0-1.1-0.3-1.9-0.8-2.4c-0.5-0.5-1.4-0.8-2.5-0.8h-0.5c-1,0-1.6,0.5-1.6,1.3v5.4H84c1.3,0,2.2-0.3,2.7-0.8
		C87.3,22,87.6,21.1,87.6,19.8 M88.7,28c0-1.2-0.3-2.1-1-2.8c-0.7-0.7-1.6-1-2.8-1h-2.7v6.1c0,0.8,0.2,1.3,0.6,1.5
		c0.4,0.3,1.2,0.4,2.2,0.4c1.1,0,2-0.4,2.6-1.2C88.4,30.3,88.7,29.2,88.7,28"/>
	<path class="st0" d="M110.9,32.7c0,0.2-0.1,0.3-0.2,0.3c-0.3,0-0.8,0-1.5-0.1c-0.5,0-0.8-0.1-1-0.1c-0.2,0-0.6,0-1.1,0.1
		c-0.5,0-0.9,0.1-1.1,0.1l-3.7-6.1c-0.5-0.8-1-1.4-1.3-1.6c-0.3-0.2-1-0.4-2-0.4v5.3c0,0.6,0.1,1,0.2,1.2c0.1,0.2,0.4,0.4,0.8,0.6
		c0.4,0.1,0.9,0.2,1.6,0.3c0.1,0,0.2,0.1,0.2,0.3c0,0.2-0.1,0.3-0.2,0.3c-0.6,0-1.2,0-2-0.1c-0.7-0.1-1.3-0.1-1.9-0.1
		c-0.5,0-1.1,0-1.8,0.1c-0.8,0-1.4,0.1-2,0.1c-0.1,0-0.2-0.1-0.2-0.3c0-0.2,0.1-0.3,0.2-0.3c0.7-0.1,1.2-0.2,1.6-0.3
		c0.4-0.1,0.6-0.3,0.8-0.5c0.1-0.2,0.2-0.6,0.2-1.2V18.6c0-0.6-0.1-1-0.2-1.2c-0.1-0.2-0.4-0.4-0.7-0.6c-0.4-0.1-0.9-0.3-1.6-0.3
		c-0.1,0-0.2-0.1-0.2-0.3c0-0.2,0.1-0.3,0.2-0.3c0.6,0,1.2,0,2,0.1c0.7,0,1.3,0.1,1.8,0.1c0.5,0,1.1,0,1.9-0.1c0.8,0,1.4-0.1,2-0.1
		c1.8,0,3.3,0.4,4.3,1.2c1,0.8,1.5,1.9,1.5,3.2c0,0.9-0.3,1.7-1,2.4c-0.7,0.8-1.6,1.3-2.7,1.7l3.8,6.2c0.3,0.5,0.8,0.9,1.3,1.2
		c0.5,0.3,1.2,0.4,2,0.5C110.8,32.3,110.9,32.5,110.9,32.7 M104.6,20.3c0-2.4-1-3.6-3.1-3.6c-0.7,0-1.2,0.1-1.6,0.2
		c-0.4,0.1-0.6,0.3-0.7,0.5C99,17.6,99,18,99,18.6v5.5c0.5,0.1,1.1,0.1,1.8,0.1c1.3,0,2.3-0.3,2.9-0.9
		C104.3,22.7,104.6,21.6,104.6,20.3"/>
	<path class="st0" d="M128.3,16.2c0,0.2-0.1,0.3-0.2,0.3c-1,0.1-1.7,0.3-2.1,0.6c-0.4,0.2-0.5,0.8-0.5,1.5v7.8
		c0,2.2-0.5,3.9-1.6,5.2c-1.1,1.3-2.6,1.9-4.5,1.9c-2.2,0-3.9-0.6-5.2-1.8c-1.2-1.2-1.8-2.8-1.8-4.9v-8.1c0-0.6-0.1-1-0.2-1.2
		c-0.1-0.2-0.4-0.4-0.8-0.6c-0.4-0.1-0.9-0.3-1.6-0.3c-0.1,0-0.2-0.1-0.2-0.3c0-0.2,0.1-0.3,0.2-0.3c0.6,0,1.2,0,2,0.1
		c0.7,0,1.3,0.1,1.8,0.1c0.5,0,1.1,0,1.9-0.1c0.8,0,1.4-0.1,2-0.1c0.1,0,0.2,0.1,0.2,0.3c0,0.2-0.1,0.3-0.2,0.3
		c-0.7,0.1-1.2,0.2-1.6,0.3c-0.4,0.1-0.6,0.3-0.8,0.6c-0.1,0.2-0.2,0.6-0.2,1.2v7.8c0,2,0.4,3.5,1.1,4.5c0.8,0.9,2,1.4,3.7,1.4
		c3.2,0,4.9-2.1,4.9-6.2v-7.5c0-0.8-0.2-1.3-0.5-1.5c-0.4-0.3-1.1-0.4-2.1-0.6c-0.1,0-0.2-0.1-0.2-0.3c0-0.2,0.1-0.3,0.2-0.3
		c0.4,0,0.9,0,1.5,0.1c0.6,0,1.1,0.1,1.5,0.1c0.4,0,0.9,0,1.5-0.1c0.6,0,1.1-0.1,1.5-0.1C128.3,15.8,128.3,15.9,128.3,16.2"/>
	<path class="st0" d="M146.8,24.5c0,2.6-0.8,4.7-2.5,6.4c-1.7,1.7-3.9,2.5-6.6,2.5c-2.7,0-4.9-0.8-6.6-2.5c-1.7-1.7-2.5-3.8-2.5-6.4
		c0-2.6,0.8-4.8,2.5-6.5c1.7-1.7,3.9-2.6,6.6-2.6c2.7,0,4.9,0.9,6.6,2.6C146,19.7,146.8,21.9,146.8,24.5 M144.1,24.5
		c0-2.4-0.6-4.4-1.8-6c-1.2-1.5-2.7-2.3-4.6-2.3c-1.9,0-3.5,0.8-4.6,2.3c-1.2,1.5-1.8,3.5-1.8,6c0,2.4,0.6,4.4,1.7,5.9
		c1.2,1.5,2.7,2.2,4.6,2.2c1.9,0,3.5-0.7,4.6-2.2C143.5,28.9,144.1,26.9,144.1,24.5"/>
	<path class="st0" d="M159.7,28c0,1.6-0.5,2.9-1.5,3.9c-1,1-2.3,1.5-3.9,1.5c-0.7,0-1.6-0.1-2.6-0.4c-0.9-0.2-1.7-0.4-2.3-0.4
		c-0.1-1.4-0.1-2.8-0.3-4.2c0-0.1,0.1-0.2,0.4-0.2c0.2,0,0.3,0.1,0.3,0.2c0.4,1.5,1,2.6,1.7,3.2c0.7,0.6,1.7,0.9,2.9,0.9
		c1,0,1.8-0.3,2.3-0.9c0.5-0.6,0.8-1.4,0.8-2.4c0-0.7-0.2-1.3-0.7-1.9c-0.5-0.6-1.5-1.3-3-2.2c-1.8-1-3-1.9-3.5-2.6
		c-0.5-0.7-0.8-1.5-0.8-2.4c0-1.3,0.5-2.5,1.5-3.4c1-0.9,2.3-1.4,3.8-1.4c0.6,0,1.2,0.1,2,0.2c0.7,0.1,1.3,0.2,1.8,0.2
		c0.1,1.5,0.2,2.7,0.4,3.8c0,0.1-0.1,0.2-0.3,0.2c-0.2,0-0.4-0.1-0.4-0.2c-0.3-1.2-0.7-2.1-1.2-2.7c-0.6-0.5-1.3-0.8-2.3-0.8
		c-0.9,0-1.7,0.3-2.2,0.8c-0.5,0.5-0.8,1.3-0.8,2.2c0,0.6,0.2,1.1,0.7,1.7c0.5,0.5,1.5,1.2,3,2.1c1.8,1.1,3,1.9,3.6,2.6
		C159.4,26.4,159.7,27.2,159.7,28"/>
	<path class="st0" d="M180.7,24.5c0,2.6-0.8,4.7-2.5,6.4c-1.7,1.7-3.9,2.5-6.6,2.5c-2.7,0-4.9-0.8-6.6-2.5c-1.7-1.7-2.5-3.8-2.5-6.4
		c0-2.6,0.8-4.8,2.5-6.5c1.7-1.7,3.9-2.6,6.6-2.6c2.7,0,4.9,0.9,6.6,2.6C179.8,19.7,180.7,21.9,180.7,24.5 M177.9,24.5
		c0-2.4-0.6-4.4-1.8-6c-1.2-1.5-2.7-2.3-4.6-2.3c-1.9,0-3.5,0.8-4.6,2.3c-1.2,1.5-1.7,3.5-1.7,6c0,2.4,0.6,4.4,1.7,5.9
		c1.2,1.5,2.7,2.2,4.6,2.2c1.9,0,3.5-0.7,4.6-2.2C177.4,28.9,177.9,26.9,177.9,24.5"/>
</g>
<rect x="0" y="0" class="st1" width="180.7" height="1.2"/>
<rect x="119.5" y="46.1" class="st1" width="61.2" height="1.2"/>
<rect x="0" y="46.1" class="st1" width="61.2" height="1.2"/>
<g>
	<defs>
		<rect id="SVGID_3_" y="0" width="180.7" height="51.8"/>
	</defs>
	<clipPath id="SVGID_4_">
		<use xlink:href="#SVGID_3_"  style="overflow:visible;"/>
	</clipPath>
	<path class="st2" d="M102.4,41.7l3.4,8.1l2.7-6.3c0.1-0.2,0.1-0.4,0.1-0.6c0-0.5-0.3-0.7-0.9-0.7c-0.1,0-0.1-0.1-0.1-0.2
		c0-0.1,0-0.2,0.1-0.2c0.2,0,0.5,0,0.8,0c0.3,0,0.5,0,0.7,0c0.2,0,0.4,0,0.7,0c0.3,0,0.5,0,0.8,0c0.1,0,0.1,0.1,0.1,0.2
		c0,0.1,0,0.1-0.1,0.2c0,0-0.1,0.1-0.1,0.1c-0.3,0-0.6,0.1-0.8,0.3c-0.2,0.2-0.4,0.6-0.7,1.1l-3.6,8.1c0,0.1-0.1,0.1-0.2,0.1
		c-0.1,0-0.2,0-0.2-0.1l-3.2-7.6l-3.3,7.6c0,0.1-0.1,0.1-0.2,0.1c-0.1,0-0.2,0-0.2-0.1l-3.5-8.1c-0.2-0.5-0.5-0.9-0.7-1.1
		c-0.2-0.2-0.6-0.3-1-0.4c0,0-0.1,0-0.1-0.1c0,0,0-0.1,0-0.1c0-0.1,0-0.2,0.1-0.2c0.3,0,0.6,0,1,0c0.3,0,0.6,0,0.9,0
		c0.3,0,0.6,0,1,0c0.4,0,0.8,0,1.1,0c0.1,0,0.1,0.1,0.1,0.2c0,0.1,0,0.2-0.1,0.2c-0.3,0-0.6,0.1-0.7,0.2C96.1,42.6,96,42.7,96,43
		c0,0.1,0,0.3,0.1,0.4l2.7,6.2l3.3-7.8C102.2,41.6,102.4,41.7,102.4,41.7"/>
	<path class="st2" d="M80.5,49.1c-0.2,0.8-0.4,1.7-0.5,2.6c-1.8-0.1-3.1-0.1-3.9-0.1c-0.8,0-2,0-3.8,0.1c-0.1,0-0.1-0.1-0.1-0.2
		c0-0.1,0-0.2,0.1-0.2c0.6-0.1,1-0.2,1.2-0.3c0.2-0.1,0.3-0.4,0.3-0.9l0-6.7c0-0.3,0-0.6-0.1-0.7c-0.1-0.1-0.2-0.2-0.4-0.3
		c-0.2-0.1-0.5-0.1-0.9-0.2c-0.1,0-0.1-0.1-0.1-0.2c0-0.1,0-0.2,0.1-0.2c0.3,0,0.7,0,1.1,0c0.4,0,0.8,0,1.1,0c0.3,0,0.6,0,1.1,0
		c0.4,0,0.8,0,1.1,0c0.1,0,0.1,0.1,0.1,0.2c0,0.1,0,0.2-0.1,0.2c-0.4,0-0.7,0.1-0.9,0.2c-0.2,0.1-0.4,0.2-0.4,0.3
		c-0.1,0.1-0.1,0.4-0.1,0.7l0,6.9c0,0.6,0.3,0.8,0.8,0.8h1.4c0.6,0,1.1-0.2,1.5-0.5c0.4-0.3,0.8-0.9,1.2-1.7c0,0,0.1-0.1,0.1-0.1
		c0.1,0,0.1,0,0.2,0.1C80.4,49.1,80.5,49.1,80.5,49.1"/>
	<path class="st2" d="M93.2,51.6c0,0.1,0,0.2-0.1,0.2c-0.3,0-0.7,0-1.1,0c-0.4,0-0.7,0-0.9,0c-0.3,0-0.6,0-1.1,0c-0.5,0-0.8,0-1.2,0
		c-0.1,0-0.1-0.1-0.1-0.2c0-0.1,0-0.2,0.1-0.2c0.4,0,0.7-0.1,0.9-0.2c0.2-0.1,0.3-0.2,0.3-0.4c0-0.1,0-0.3-0.1-0.6L89,47.8l-2.9,0
		L85.3,50c-0.1,0.3-0.2,0.5-0.2,0.7c0,0.4,0.4,0.6,1.1,0.7c0.1,0,0.1,0.1,0.1,0.2c0,0.1,0,0.2-0.1,0.2c-0.3,0-0.6,0-0.9,0
		c-0.3,0-0.6,0-0.9,0c-0.2,0-0.5,0-0.8,0c-0.3,0-0.6,0-0.8,0c-0.1,0-0.1-0.1-0.1-0.2c0-0.1,0.1-0.2,0.2-0.2c0.4,0,0.7-0.1,0.9-0.3
		c0.2-0.2,0.5-0.5,0.7-1.1l3.3-8.1c0-0.1,0.1-0.1,0.2-0.1c0.1,0,0.2,0,0.2,0.1l2.9,8.2c0.2,0.5,0.4,0.8,0.7,1
		c0.3,0.2,0.7,0.4,1.1,0.4C93.1,51.4,93.2,51.4,93.2,51.6 M88.9,47.3l-1.2-3.6l-1.3,3.6L88.9,47.3z"/>
</g>
</svg>
