<?xml version="1.0" encoding="utf-8"?>
<!-- Generator: Adobe Illustrator 21.0.2, SVG Export Plug-In . SVG Version: 6.00 Build 0)  -->
<svg version="1.1" id="Layer_1" xmlns="http://www.w3.org/2000/svg" xmlns:xlink="http://www.w3.org/1999/xlink" x="0px" y="0px"
	 viewBox="0 0 15.4 15.4" style="enable-background:new 0 0 15.4 15.4;" xml:space="preserve">
<style type="text/css">
	.st0{fill:#E8AF3D;}
</style>
<path class="st0" d="M15.4,12.5c0,1.6-1.3,2.9-2.9,2.9H2.9c-1.6,0-2.9-1.3-2.9-2.9V2.9C0,1.3,1.3,0,2.9,0h9.6c1.6,0,2.9,1.3,2.9,2.9
	V12.5z M3.6,2.6c-0.8,0-1.3,0.5-1.3,1.2C2.2,4.5,2.7,5,3.5,5h0l0,0c0.8,0,1.3-0.5,1.3-1.2C4.8,3.1,4.3,2.6,3.6,2.6z M4.7,12.9v-7
	H2.4v7H4.7z M13,12.9v-4c0-2.1-1.1-3.1-2.7-3.1C9.1,5.8,8.6,6.5,8.3,7h0v-1H6c0,0,0,0.7,0,7h2.3V9c0-0.2,0-0.4,0.1-0.6
	C8.5,8,8.9,7.6,9.6,7.6c0.8,0,1.2,0.6,1.2,1.6v3.7H13z"/>
</svg>
