<?xml version="1.0" encoding="utf-8"?>
<!-- Generator: Adobe Illustrator 18.1.1, SVG Export Plug-In . SVG Version: 6.00 Build 0)  -->
<svg version="1.1" id="Layer_1" xmlns="http://www.w3.org/2000/svg" xmlns:xlink="http://www.w3.org/1999/xlink" x="0px" y="0px"
	 viewBox="0 0 200.1 44" enable-background="new 0 0 200.1 44" xml:space="preserve">
<g>
	<path fill="#3B6E8F" d="M188.6,3.6l4.7,11.1l3.7-8.6c0.1-0.3,0.2-0.6,0.2-0.9c0-0.6-0.4-1-1.3-1c-0.1,0-0.1-0.1-0.1-0.3
		c0-0.2,0.1-0.3,0.2-0.3c0.3,0,0.7,0,1.1,0.1c0.4,0,0.7,0.1,1,0.1c0.3,0,0.6,0,1-0.1c0.4,0,0.7-0.1,1-0.1c0.1,0,0.1,0.1,0.1,0.2
		c0,0.1,0,0.1-0.1,0.2c0,0.1-0.1,0.1-0.2,0.1c-0.5,0-0.9,0.2-1.2,0.5c-0.3,0.3-0.6,0.8-0.9,1.5l-4.9,11.1c0,0.1-0.1,0.2-0.3,0.2
		c-0.1,0-0.2-0.1-0.3-0.2L188,6.9l-4.6,10.4c-0.1,0.1-0.2,0.2-0.3,0.2c-0.1,0-0.2-0.1-0.3-0.2l-4.8-11.1c-0.3-0.7-0.6-1.2-0.9-1.5
		c-0.3-0.3-0.8-0.4-1.4-0.5c-0.1,0-0.1,0-0.1-0.1c0-0.1-0.1-0.1-0.1-0.2c0-0.2,0.1-0.3,0.2-0.3c0.4,0,0.9,0,1.3,0.1
		c0.4,0,0.8,0.1,1.2,0.1c0.4,0,0.8,0,1.4-0.1c0.6,0,1-0.1,1.5-0.1c0.1,0,0.2,0.1,0.2,0.3c0,0.2,0,0.3-0.1,0.3c-0.4,0-0.8,0.1-1,0.3
		c-0.2,0.2-0.4,0.4-0.4,0.7c0,0.2,0.1,0.4,0.2,0.6l3.7,8.5l4.5-10.7C188.4,3.5,188.6,3.6,188.6,3.6"/>
	<path fill="#3B6E8F" d="M15.7,9c0-2.2-0.6-4.1-1.9-5.6C12.6,2,11,1.2,9,1.2H9L6.7,1.3c-1,0-1.4,0.5-1.4,1.4v12.4
		c0,0.9,0.5,1.4,1.4,1.4L9,16.6c1.9,0,3.5-0.7,4.8-2.2C15.1,13,15.7,11.2,15.7,9 M18.4,9c0,2.5-0.8,4.5-2.5,6.1
		c-1.7,1.5-4,2.3-6.8,2.3c-0.4,0-1.1,0-2.2,0c-1.1,0-1.9,0-2.3,0c-1.5,0-3,0-4.4,0.1c-0.1,0-0.2-0.1-0.2-0.3c0-0.2,0.1-0.3,0.2-0.3
		c0.7-0.1,1.2-0.2,1.6-0.3c0.4-0.1,0.6-0.3,0.8-0.5c0.1-0.2,0.2-0.6,0.2-1.2V3.2c0-0.6-0.1-1-0.2-1.2C2.4,1.7,2.1,1.6,1.8,1.4
		C1.4,1.3,0.9,1.2,0.2,1.1C0.1,1.1,0,1,0,0.8c0-0.2,0.1-0.3,0.2-0.3c1,0.1,2.4,0.1,4.4,0.1c0.4,0,1.1,0,2.3,0c1.1,0,1.8,0,2.2,0
		c2.8,0,5.1,0.8,6.8,2.4C17.6,4.4,18.4,6.5,18.4,9"/>
	<path fill="#3B6E8F" d="M24.7,2.5c0,0.8-0.2,1.5-0.5,2.1c-0.3,0.6-0.8,1.2-1.4,1.7c-0.6,0.5-1,0.8-1.2,0.8c-0.1,0-0.2-0.1-0.3-0.2
		c-0.1-0.1-0.1-0.2-0.1-0.3l0-0.1c1.3-0.9,2-1.9,2-3.1c0-0.4-0.1-0.6-0.2-0.6l-0.1,0c-0.1,0-0.2,0.1-0.2,0.1c-0.4,0-0.7-0.1-1-0.4
		c-0.3-0.3-0.4-0.6-0.4-1c0-0.4,0.1-0.7,0.4-1c0.3-0.3,0.6-0.4,1-0.4c0.5,0,1,0.2,1.4,0.7C24.5,1.2,24.7,1.8,24.7,2.5"/>
	<path fill="#3B6E8F" d="M32.3,9.8l-2.2-6.2l-2.3,6.2H32.3z M39.8,17.1c0,0.2-0.1,0.3-0.2,0.3c-0.6,0-1.2,0-1.9-0.1
		c-0.6,0-1.1-0.1-1.6-0.1c-0.5,0-1.1,0-1.9,0.1c-0.8,0-1.4,0.1-2,0.1c-0.1,0-0.2-0.1-0.2-0.3s0-0.3,0.1-0.3c0.7,0,1.2-0.1,1.6-0.3
		c0.3-0.2,0.5-0.4,0.5-0.7c0-0.2-0.1-0.6-0.2-1l-1.4-4.1h-5l-1.4,3.8c-0.2,0.5-0.3,0.9-0.3,1.2c0,0.7,0.7,1.1,2,1.2
		c0.1,0,0.1,0.1,0.1,0.3s-0.1,0.3-0.2,0.3c-0.5,0-1,0-1.6-0.1c-0.6,0-1.1-0.1-1.5-0.1c-0.3,0-0.8,0-1.3,0.1c-0.6,0-1,0.1-1.4,0.1
		c-0.1,0-0.2-0.1-0.2-0.3c0-0.2,0.1-0.3,0.3-0.4c0.7-0.1,1.2-0.3,1.6-0.6c0.4-0.3,0.8-0.9,1.2-1.9l5.7-14.1C30.7,0.1,30.8,0,31,0
		c0.2,0,0.3,0.1,0.4,0.2l5.1,14.1c0.3,0.8,0.7,1.4,1.2,1.8c0.5,0.4,1.1,0.6,2,0.7C39.7,16.8,39.8,16.9,39.8,17.1"/>
	<path fill="#3B6E8F" d="M59,17.1c0,0.2-0.1,0.3-0.2,0.3c-0.4,0-1,0-1.6-0.1c-0.6,0-1.1-0.1-1.5-0.1c-0.4,0-0.9,0-1.4,0.1
		c-0.6,0-1.1,0.1-1.6,0.1c-0.1,0-0.2-0.1-0.2-0.3c0-0.2,0.1-0.2,0.2-0.3c0.8-0.1,1.3-0.2,1.6-0.4c0.3-0.2,0.4-0.5,0.4-1.1v-0.2
		l-0.4-9.4l-4.7,11.8c0,0.1-0.1,0.2-0.3,0.2c-0.1,0-0.2-0.1-0.3-0.2L44.7,6.3l-0.7,9c0,0.1,0,0.2,0,0.3c0,0.4,0.1,0.7,0.4,0.9
		c0.3,0.2,0.8,0.3,1.6,0.4c0.1,0,0.1,0.1,0.1,0.3c0,0.2-0.1,0.3-0.2,0.3c-0.3,0-0.8,0-1.4-0.1c-0.5,0-1-0.1-1.3-0.1
		c-0.3,0-0.8,0-1.3,0.1c-0.5,0-1,0.1-1.2,0.1c-0.1,0-0.1-0.1-0.1-0.3c0-0.2,0.1-0.2,0.2-0.3c0.8-0.1,1.4-0.2,1.7-0.5
		c0.3-0.2,0.5-0.6,0.5-1.2l1-9.2c0-0.1,0-0.2,0-0.3c0-0.4-0.1-0.7-0.4-0.9c-0.3-0.2-0.8-0.3-1.6-0.4c-0.1,0-0.1-0.1-0.1-0.3
		c0-0.1,0-0.1,0.1-0.2c0-0.1,0.1-0.1,0.1-0.1c0.2,0,0.6,0,1,0.1C43.5,4,43.7,4,43.9,4c0.2,0,0.5,0,1-0.1c0.4,0,0.8-0.1,1-0.1
		l4.2,10.8l4.3-10.8c0.3,0,0.6,0,1,0.1C55.8,4,56.1,4,56.3,4c0.3,0,0.6,0,1-0.1c0.4,0,0.7-0.1,1-0.1c0.1,0,0.2,0.1,0.2,0.3
		c0,0.2-0.1,0.3-0.2,0.3c-0.8,0.1-1.3,0.2-1.5,0.4c-0.3,0.2-0.4,0.5-0.4,1.1V6l0.4,9.2c0,0.5,0.1,0.8,0.2,1c0.1,0.2,0.3,0.3,0.6,0.4
		c0.3,0.1,0.7,0.2,1.3,0.3C59,16.9,59,17,59,17.1"/>
	<path fill="#3B6E8F" d="M69.8,13.4c0-0.9-0.3-1.7-0.8-2.2c-0.5-0.5-1.3-0.8-2.2-0.8h-2.1v4.8c0,0.6,0.2,1,0.5,1.2
		c0.3,0.2,0.9,0.3,1.7,0.3c0.9,0,1.5-0.3,2.1-0.9C69.6,15.2,69.8,14.4,69.8,13.4 M68.9,7c0-0.9-0.2-1.5-0.6-1.9
		c-0.4-0.4-1.1-0.6-2-0.6H66c-0.8,0-1.2,0.4-1.2,1.1v4.2h1.4c1,0,1.7-0.2,2.1-0.7C68.7,8.7,68.9,8,68.9,7 M72,13.4
		c0,1.2-0.4,2.2-1.2,2.9c-0.8,0.7-1.9,1.1-3.2,1.1c-0.4,0-1.1,0-1.8-0.1c-0.8,0-1.3-0.1-1.7-0.1c-0.4,0-0.9,0-1.6,0.1
		c-0.7,0-1.3,0.1-1.7,0.1c-0.1,0-0.2-0.1-0.2-0.3c0-0.2,0.1-0.2,0.2-0.3c0.8-0.1,1.3-0.2,1.6-0.4c0.3-0.2,0.4-0.6,0.4-1.2V6
		c0-0.5-0.1-0.8-0.2-1c-0.1-0.2-0.3-0.3-0.6-0.4c-0.3-0.1-0.7-0.2-1.3-0.3c-0.1,0-0.2-0.1-0.2-0.3c0-0.2,0.1-0.3,0.2-0.3
		c0.4,0,1,0,1.6,0.1C62.9,4,63.4,4,63.8,4c0.4,0,0.9,0,1.6-0.1c0.7,0,1.2-0.1,1.7-0.1c1.2,0,2.2,0.3,2.9,0.9
		c0.7,0.6,1.1,1.3,1.1,2.3c0,0.7-0.3,1.3-0.8,1.9c-0.6,0.6-1.2,1-2,1.1c1.1,0.2,2.1,0.6,2.7,1.3C71.6,11.9,72,12.6,72,13.4"/>
	<path fill="#3B6E8F" d="M82.4,7.4c0-1.9-0.8-2.8-2.5-2.8c-0.5,0-1,0-1.2,0.1c-0.3,0.1-0.5,0.2-0.6,0.4c-0.1,0.2-0.1,0.5-0.1,1v4.3
		c0.4,0,0.9,0.1,1.4,0.1c1,0,1.8-0.2,2.3-0.7C82.1,9.2,82.4,8.4,82.4,7.4 M87.3,17.1c0,0.2-0.1,0.3-0.2,0.3c-0.2,0-0.6,0-1.2-0.1
		c-0.4,0-0.7-0.1-0.8-0.1c-0.2,0-0.5,0-0.9,0.1c-0.4,0-0.7,0.1-0.9,0.1l-2.9-4.8c-0.4-0.7-0.8-1.1-1-1.3c-0.3-0.2-0.8-0.3-1.5-0.3
		v4.2c0,0.5,0.1,0.8,0.2,0.9c0.1,0.2,0.3,0.3,0.6,0.4c0.3,0.1,0.7,0.2,1.2,0.3c0.1,0,0.2,0.1,0.2,0.3c0,0.2,0,0.3-0.2,0.3
		c-0.4,0-1,0-1.6-0.1c-0.6,0-1.1-0.1-1.5-0.1c-0.4,0-0.9,0-1.5,0.1c-0.6,0-1.1,0.1-1.5,0.1c-0.1,0-0.2-0.1-0.2-0.3
		c0-0.2,0.1-0.2,0.2-0.3c0.5-0.1,1-0.2,1.2-0.3c0.3-0.1,0.5-0.2,0.6-0.4c0.1-0.2,0.2-0.5,0.2-1V6c0-0.4-0.1-0.8-0.2-0.9
		c-0.1-0.2-0.3-0.3-0.6-0.4c-0.3-0.1-0.7-0.2-1.3-0.3c-0.1,0-0.2-0.1-0.2-0.3c0-0.2,0.1-0.3,0.2-0.3c0.4,0,1,0,1.5,0.1
		C76.1,4,76.5,4,76.9,4c0.4,0,0.9,0,1.5-0.1c0.6,0,1.1-0.1,1.6-0.1c1.4,0,2.6,0.3,3.4,0.9c0.8,0.6,1.2,1.5,1.2,2.5
		c0,0.7-0.3,1.3-0.8,1.9c-0.5,0.6-1.2,1-2.1,1.4l3,4.9c0.3,0.4,0.6,0.7,1,0.9c0.4,0.2,0.9,0.3,1.6,0.4C87.3,16.9,87.3,17,87.3,17.1"
		/>
	<path fill="#3B6E8F" d="M101.1,4.1c0,0.2,0,0.3-0.2,0.3c-0.8,0.1-1.4,0.3-1.6,0.4C99,5,98.8,5.4,98.8,6v6.1c0,1.7-0.4,3.1-1.3,4.1
		c-0.8,1-2,1.5-3.5,1.5c-1.7,0-3.1-0.5-4.1-1.4c-1-0.9-1.5-2.2-1.5-3.8V6c0-0.4-0.1-0.8-0.2-0.9c-0.1-0.2-0.3-0.3-0.6-0.4
		c-0.3-0.1-0.7-0.2-1.3-0.3c-0.1,0-0.2-0.1-0.2-0.3c0-0.2,0.1-0.3,0.2-0.3c0.4,0,0.9,0,1.5,0.1C88.6,4,89.1,4,89.5,4
		c0.4,0,0.9,0,1.5-0.1c0.6,0,1.1-0.1,1.6-0.1c0.1,0,0.2,0.1,0.2,0.3c0,0.2-0.1,0.3-0.2,0.3c-0.6,0.1-1,0.2-1.3,0.3
		c-0.3,0.1-0.5,0.3-0.6,0.4c-0.1,0.2-0.2,0.5-0.2,1v6.1c0,1.6,0.3,2.8,0.9,3.5c0.6,0.8,1.6,1.1,2.9,1.1c2.6,0,3.8-1.6,3.8-4.9V6
		c0-0.6-0.1-1-0.4-1.2c-0.3-0.2-0.8-0.3-1.6-0.4C96,4.4,96,4.3,96,4.1c0-0.2,0.1-0.3,0.2-0.3c0.3,0,0.7,0,1.2,0.1
		C97.8,4,98.2,4,98.5,4c0.3,0,0.7,0,1.2-0.1c0.5,0,0.9-0.1,1.2-0.1C101,3.9,101.1,3.9,101.1,4.1"/>
	<path fill="#3B6E8F" d="M113.5,10.7c0-1.9-0.5-3.5-1.4-4.7c-0.9-1.2-2.1-1.8-3.6-1.8c-1.5,0-2.7,0.6-3.6,1.8
		c-0.9,1.2-1.4,2.8-1.4,4.7c0,1.9,0.5,3.4,1.4,4.6c0.9,1.2,2.1,1.8,3.7,1.8c1.5,0,2.7-0.6,3.7-1.8C113,14.1,113.5,12.6,113.5,10.7
		 M115.6,10.7c0,2.1-0.7,3.7-2,5c-1.3,1.3-3.1,2-5.2,2c-2.1,0-3.9-0.7-5.2-2c-1.3-1.3-2-3-2-5c0-2.1,0.7-3.8,2-5.1
		c1.3-1.3,3.1-2,5.2-2c2.1,0,3.8,0.7,5.2,2C115,6.9,115.6,8.6,115.6,10.7"/>
	<path fill="#3B6E8F" d="M125.4,13.5c0,1.3-0.4,2.3-1.1,3.1c-0.8,0.8-1.8,1.1-3.1,1.1c-0.6,0-1.3-0.1-2.1-0.3
		c-0.7-0.2-1.3-0.3-1.8-0.3c0-1.1-0.1-2.2-0.2-3.3c0-0.1,0.1-0.2,0.3-0.2c0.1,0,0.2,0.1,0.3,0.2c0.3,1.2,0.8,2.1,1.3,2.5
		c0.5,0.5,1.3,0.7,2.3,0.7c0.8,0,1.4-0.2,1.8-0.7c0.4-0.5,0.6-1.1,0.6-1.9c0-0.5-0.2-1-0.6-1.5c-0.4-0.4-1.2-1-2.4-1.7
		c-1.4-0.8-2.3-1.5-2.8-2.1c-0.4-0.6-0.7-1.2-0.7-1.9c0-1.1,0.4-2,1.2-2.7c0.8-0.7,1.8-1.1,3-1.1c0.5,0,1,0.1,1.6,0.2
		c0.5,0.1,1,0.2,1.4,0.2c0.1,1.1,0.2,2.1,0.3,3c0,0.1-0.1,0.2-0.3,0.2c-0.2,0-0.3,0-0.3-0.2c-0.2-1-0.5-1.7-1-2.1
		c-0.4-0.4-1-0.6-1.8-0.6c-0.7,0-1.3,0.2-1.7,0.6c-0.4,0.4-0.6,1-0.6,1.7c0,0.5,0.2,0.9,0.5,1.3c0.4,0.4,1.1,1,2.3,1.7
		c1.4,0.8,2.4,1.5,2.8,2.1C125.2,12.2,125.4,12.8,125.4,13.5"/>
	<path fill="#3B6E8F" d="M139.4,10.7c0-1.9-0.5-3.5-1.4-4.7c-0.9-1.2-2.1-1.8-3.6-1.8c-1.5,0-2.7,0.6-3.6,1.8
		c-0.9,1.2-1.4,2.8-1.4,4.7c0,1.9,0.5,3.4,1.4,4.6c0.9,1.2,2.1,1.8,3.7,1.8c1.5,0,2.7-0.6,3.7-1.8C139,14.1,139.4,12.6,139.4,10.7
		 M141.6,10.7c0,2.1-0.7,3.7-2,5c-1.3,1.3-3,2-5.2,2c-2.1,0-3.9-0.7-5.2-2c-1.3-1.3-2-3-2-5c0-2.1,0.7-3.8,2-5.1
		c1.3-1.3,3.1-2,5.2-2c2.1,0,3.8,0.7,5.2,2C140.9,6.9,141.6,8.6,141.6,10.7"/>
	<path fill="#3B6E8F" d="M163.9,12.9c-0.4,1.4-0.7,2.9-0.9,4.5c-3.1-0.1-5.4-0.1-6.7-0.1c-1.3,0-3.5,0.1-6.6,0.1
		c-0.1,0-0.2-0.1-0.2-0.3c0-0.2,0.1-0.3,0.2-0.3c1-0.1,1.7-0.3,2-0.6c0.4-0.3,0.5-0.8,0.5-1.5V3.1c0-0.6-0.1-1-0.2-1.2
		c-0.1-0.2-0.4-0.4-0.8-0.6c-0.4-0.1-0.9-0.2-1.6-0.3c-0.1,0-0.2-0.1-0.2-0.3c0-0.2,0.1-0.3,0.2-0.3c0.6,0,1.2,0,2,0.1
		c0.7,0,1.3,0.1,1.8,0.1c0.5,0,1.1,0,1.8-0.1c0.8,0,1.4-0.1,1.9-0.1c0.1,0,0.2,0.1,0.2,0.3c0,0.2-0.1,0.3-0.2,0.3
		c-0.7,0.1-1.2,0.2-1.6,0.3c-0.4,0.1-0.6,0.3-0.7,0.5c-0.1,0.2-0.2,0.6-0.2,1.2V15c0,1,0.5,1.4,1.4,1.4h2.4c1,0,1.9-0.3,2.5-0.8
		c0.7-0.5,1.4-1.5,2.1-3c0-0.1,0.1-0.1,0.2-0.1c0.1,0,0.2,0,0.3,0.1C163.9,12.8,163.9,12.8,163.9,12.9"/>
	<path fill="#3B6E8F" d="M173.1,11.3l-1.7-5l-1.8,5H173.1z M179,17.1c0,0.2-0.1,0.3-0.2,0.3c-0.4,0-1,0-1.5-0.1
		c-0.5,0-0.9-0.1-1.2-0.1c-0.4,0-0.9,0-1.5,0.1c-0.6,0-1.1,0.1-1.6,0.1c-0.1,0-0.2-0.1-0.2-0.3c0-0.2,0-0.3,0.1-0.3
		c0.6,0,1-0.1,1.2-0.2c0.3-0.1,0.4-0.3,0.4-0.6c0-0.2-0.1-0.4-0.2-0.8l-1.1-3.3h-4l-1.1,3c-0.1,0.4-0.2,0.7-0.2,0.9
		c0,0.6,0.5,0.9,1.6,0.9c0.1,0,0.1,0.1,0.1,0.3c0,0.2,0,0.3-0.2,0.3c-0.4,0-0.8,0-1.3-0.1c-0.5,0-0.8-0.1-1.2-0.1
		c-0.3,0-0.6,0-1,0.1c-0.4,0-0.8,0.1-1.1,0.1c-0.1,0-0.1-0.1-0.1-0.2c0-0.2,0.1-0.3,0.2-0.3c0.5-0.1,1-0.2,1.3-0.4
		c0.3-0.2,0.6-0.7,1-1.5l4.6-11.2c0-0.1,0.1-0.2,0.3-0.2c0.2,0,0.3,0,0.3,0.1l4,11.2c0.2,0.6,0.5,1.1,0.9,1.4
		c0.4,0.3,0.9,0.5,1.5,0.6C178.9,16.9,179,17,179,17.1"/>
</g>
<g>
	<path fill="#3B6E8F" d="M59.9,33.7h3v0.7h-2.2V36h2.2v0.7h-2.2v1.6H63V39h-3.1V33.7z"/>
	<path fill="#3B6E8F" d="M65.8,36.8l-0.6-0.4c-0.4-0.2-0.6-0.4-0.8-0.7c-0.2-0.2-0.2-0.5-0.2-0.7c0-0.4,0.1-0.8,0.4-1
		c0.3-0.3,0.7-0.4,1.1-0.4c0.4,0,0.8,0.1,1.2,0.4v0.9c-0.4-0.4-0.8-0.6-1.2-0.6c-0.2,0-0.5,0.1-0.6,0.2c-0.2,0.1-0.2,0.3-0.2,0.4
		c0,0.2,0.1,0.3,0.2,0.4c0.1,0.1,0.3,0.3,0.6,0.4l0.6,0.3c0.6,0.4,1,0.9,1,1.5c0,0.4-0.1,0.8-0.4,1c-0.3,0.3-0.7,0.4-1.1,0.4
		c-0.5,0-1-0.2-1.4-0.5v-1c0.4,0.5,0.9,0.8,1.4,0.8c0.2,0,0.4-0.1,0.6-0.2c0.2-0.1,0.2-0.3,0.2-0.5C66.5,37.4,66.2,37.1,65.8,36.8z"
		/>
	<path fill="#3B6E8F" d="M68.2,33.7h4.4v0.7h-1.8V39H70v-4.6h-1.8V33.7z"/>
	<path fill="#3B6E8F" d="M74.9,33.7h0.5l2.4,5.3H77l-0.7-1.6H74L73.4,39h-0.8L74.9,33.7z M76,36.8l-0.9-1.9l-0.8,1.9H76z"/>
	<path fill="#3B6E8F" d="M77.8,33.7h4.4v0.7h-1.8V39h-0.8v-4.6h-1.8V33.7z"/>
	<path fill="#3B6E8F" d="M83.5,33.7h3v0.7h-2.2V36h2.2v0.7h-2.2v1.6h2.3V39h-3.1V33.7z"/>
	<path fill="#3B6E8F" d="M90.8,39v-5.3h1.7c0.5,0,0.9,0.1,1.2,0.4c0.3,0.3,0.5,0.6,0.5,1.1c0,0.3-0.1,0.6-0.2,0.8
		c-0.2,0.2-0.4,0.4-0.6,0.5c-0.3,0.1-0.7,0.2-1.2,0.2h-0.6V39H90.8z M92.3,34.4h-0.8v1.7h0.8c0.3,0,0.5-0.1,0.7-0.2
		c0.2-0.1,0.3-0.4,0.3-0.6C93.3,34.7,93,34.4,92.3,34.4z"/>
	<path fill="#3B6E8F" d="M95.4,33.7h0.8v4.6h2.4V39h-3.1V33.7z"/>
	<path fill="#3B6E8F" d="M101.5,33.7h0.5l2.4,5.3h-0.8l-0.7-1.6h-2.3L100,39h-0.8L101.5,33.7z M102.7,36.8l-0.9-1.9l-0.8,1.9H102.7z
		"/>
	<path fill="#3B6E8F" d="M109.9,33.7h0.7V39h-0.7l-3.5-4.1V39h-0.7v-5.3h0.6l3.6,4.1V33.7z"/>
	<path fill="#3B6E8F" d="M116.6,33.7h0.7V39h-0.7l-3.5-4.1V39h-0.7v-5.3h0.6l3.6,4.1V33.7z"/>
	<path fill="#3B6E8F" d="M119.1,33.7h0.8V39h-0.8V33.7z"/>
	<path fill="#3B6E8F" d="M125.8,33.7h0.7V39h-0.7l-3.5-4.1V39h-0.7v-5.3h0.6l3.6,4.1V33.7z"/>
	<path fill="#3B6E8F" d="M131.2,36.4h1.8v2.2c-0.7,0.3-1.3,0.4-1.9,0.4c-0.9,0-1.6-0.3-2.1-0.8c-0.5-0.5-0.8-1.1-0.8-1.9
		c0-0.8,0.3-1.5,0.8-2c0.5-0.5,1.2-0.8,2-0.8c0.3,0,0.6,0,0.9,0.1c0.3,0.1,0.6,0.2,1,0.4v0.8c-0.6-0.4-1.3-0.6-1.9-0.6
		c-0.6,0-1.1,0.2-1.5,0.6c-0.4,0.4-0.6,0.9-0.6,1.5c0,0.6,0.2,1.1,0.6,1.5c0.4,0.4,0.9,0.6,1.5,0.6c0.3,0,0.7-0.1,1.1-0.2l0.1,0
		v-1.1h-1V36.4z"/>
</g>
<g>
	<path fill="#3B6E8F" d="M0.4,39v-5.3h1.3c0.5,0,1,0.1,1.3,0.4c0.3,0.3,0.5,0.6,0.5,1.1c0,0.3-0.1,0.6-0.2,0.8
		c-0.2,0.2-0.4,0.4-0.7,0.5c0.2,0.1,0.3,0.3,0.5,0.5c0.2,0.2,0.4,0.5,0.7,1c0.2,0.3,0.3,0.5,0.4,0.7L4.5,39H3.6l-0.2-0.3
		c0,0,0,0,0-0.1l-0.1-0.2L2.9,38l-0.3-0.4c-0.2-0.2-0.3-0.4-0.4-0.5C2.1,37,2,36.9,1.9,36.8c-0.1-0.1-0.3-0.1-0.5-0.1H1.2V39H0.4z
		 M1.4,34.4H1.2v1.7h0.3c0.4,0,0.6,0,0.8-0.1c0.1-0.1,0.3-0.2,0.3-0.3c0.1-0.1,0.1-0.3,0.1-0.5c0-0.2,0-0.3-0.1-0.5
		c-0.1-0.1-0.2-0.2-0.4-0.3C2,34.4,1.8,34.4,1.4,34.4z"/>
	<path fill="#3B6E8F" d="M5.7,33.7h3v0.7H6.5V36h2.2v0.7H6.5v1.6h2.3V39H5.7V33.7z"/>
	<path fill="#3B6E8F" d="M11.9,33.7h0.5l2.4,5.3H14l-0.7-1.6h-2.3L10.4,39H9.6L11.9,33.7z M13,36.8l-0.9-1.9l-0.8,1.9H13z"/>
	<path fill="#3B6E8F" d="M16,33.7h0.8v4.6h2.4V39H16V33.7z"/>
	<path fill="#3B6E8F" d="M23.2,33.7h3v0.7H24V36h2.2v0.7H24v1.6h2.3V39h-3.1V33.7z"/>
	<path fill="#3B6E8F" d="M29.1,36.8l-0.6-0.4c-0.4-0.2-0.6-0.4-0.8-0.7c-0.2-0.2-0.2-0.5-0.2-0.7c0-0.4,0.1-0.8,0.4-1
		c0.3-0.3,0.7-0.4,1.1-0.4c0.4,0,0.8,0.1,1.2,0.4v0.9c-0.4-0.4-0.8-0.6-1.2-0.6c-0.2,0-0.5,0.1-0.6,0.2c-0.2,0.1-0.2,0.3-0.2,0.4
		c0,0.2,0.1,0.3,0.2,0.4c0.1,0.1,0.3,0.3,0.6,0.4l0.6,0.3c0.6,0.4,1,0.9,1,1.5c0,0.4-0.1,0.8-0.4,1c-0.3,0.3-0.7,0.4-1.1,0.4
		c-0.5,0-1-0.2-1.4-0.5v-1c0.4,0.5,0.9,0.8,1.4,0.8c0.2,0,0.4-0.1,0.6-0.2c0.2-0.1,0.2-0.3,0.2-0.5C29.8,37.4,29.5,37.1,29.1,36.8z"
		/>
	<path fill="#3B6E8F" d="M31.5,33.7h4.4v0.7h-1.8V39h-0.8v-4.6h-1.8V33.7z"/>
	<path fill="#3B6E8F" d="M38.2,33.7h0.5l2.4,5.3h-0.8l-0.7-1.6h-2.3L36.7,39h-0.8L38.2,33.7z M39.3,36.8l-0.9-1.9l-0.8,1.9H39.3z"/>
	<path fill="#3B6E8F" d="M41.1,33.7h4.4v0.7h-1.8V39h-0.8v-4.6h-1.8V33.7z"/>
	<path fill="#3B6E8F" d="M46.8,33.7h3v0.7h-2.2V36h2.2v0.7h-2.2v1.6h2.3V39h-3.1V33.7z"/>
</g>
<g>
	<path fill="#3B6E8F" d="M144.1,39h-1.8v-5.3h1.4c0.4,0,0.8,0.1,1,0.2c0.2,0.1,0.4,0.3,0.6,0.5c0.1,0.2,0.2,0.4,0.2,0.7
		c0,0.5-0.3,0.9-0.8,1.1c0.4,0.1,0.7,0.2,0.9,0.5c0.2,0.2,0.3,0.5,0.3,0.9c0,0.3-0.1,0.5-0.2,0.7c-0.1,0.2-0.3,0.4-0.6,0.5
		C144.8,39,144.5,39,144.1,39z M143.7,34.4h-0.7V36h0.5c0.4,0,0.7-0.1,0.9-0.2c0.2-0.2,0.3-0.4,0.3-0.6
		C144.7,34.7,144.4,34.4,143.7,34.4z M143.8,36.7h-0.7v1.7h0.7c0.4,0,0.7,0,0.8-0.1c0.1-0.1,0.3-0.2,0.4-0.3
		c0.1-0.1,0.1-0.3,0.1-0.4c0-0.2,0-0.3-0.1-0.4c-0.1-0.1-0.2-0.2-0.4-0.3C144.4,36.7,144.2,36.7,143.8,36.7z"/>
	<path fill="#3B6E8F" d="M151,33.7h0.8v3c0,0.4,0,0.7-0.1,0.9c-0.1,0.2-0.1,0.4-0.2,0.5c-0.1,0.1-0.2,0.3-0.3,0.4
		c-0.4,0.4-1,0.5-1.6,0.5c-0.7,0-1.2-0.2-1.7-0.5c-0.1-0.1-0.2-0.2-0.3-0.4c-0.1-0.1-0.2-0.3-0.2-0.5c-0.1-0.2-0.1-0.5-0.1-0.9v-3
		h0.8v3c0,0.5,0.1,0.8,0.2,1c0.1,0.2,0.3,0.4,0.5,0.5c0.2,0.1,0.5,0.2,0.8,0.2c0.5,0,0.8-0.1,1.1-0.4c0.1-0.1,0.3-0.3,0.3-0.4
		c0.1-0.2,0.1-0.5,0.1-0.9V33.7z"/>
	<path fill="#3B6E8F" d="M154.7,36.8l-0.6-0.4c-0.4-0.2-0.6-0.4-0.8-0.7c-0.2-0.2-0.2-0.5-0.2-0.7c0-0.4,0.1-0.8,0.4-1
		c0.3-0.3,0.7-0.4,1.1-0.4c0.4,0,0.8,0.1,1.2,0.4v0.9c-0.4-0.4-0.8-0.6-1.2-0.6c-0.2,0-0.5,0.1-0.6,0.2c-0.2,0.1-0.2,0.3-0.2,0.4
		c0,0.2,0.1,0.3,0.2,0.4c0.1,0.1,0.3,0.3,0.6,0.4l0.6,0.3c0.6,0.4,1,0.9,1,1.5c0,0.4-0.1,0.8-0.4,1c-0.3,0.3-0.7,0.4-1.1,0.4
		c-0.5,0-1-0.2-1.4-0.5v-1c0.4,0.5,0.9,0.8,1.4,0.8c0.2,0,0.4-0.1,0.6-0.2c0.2-0.1,0.2-0.3,0.2-0.5
		C155.4,37.4,155.2,37.1,154.7,36.8z"/>
	<path fill="#3B6E8F" d="M157.6,33.7h0.8V39h-0.8V33.7z"/>
	<path fill="#3B6E8F" d="M164.4,33.7h0.7V39h-0.7l-3.5-4.1V39h-0.7v-5.3h0.6l3.6,4.1V33.7z"/>
	<path fill="#3B6E8F" d="M166.9,33.7h3v0.7h-2.2V36h2.2v0.7h-2.2v1.6h2.3V39h-3.1V33.7z"/>
	<path fill="#3B6E8F" d="M172.7,36.8l-0.6-0.4c-0.4-0.2-0.6-0.4-0.8-0.7c-0.2-0.2-0.2-0.5-0.2-0.7c0-0.4,0.1-0.8,0.4-1
		c0.3-0.3,0.7-0.4,1.1-0.4c0.4,0,0.8,0.1,1.2,0.4v0.9c-0.4-0.4-0.8-0.6-1.2-0.6c-0.2,0-0.5,0.1-0.6,0.2c-0.2,0.1-0.2,0.3-0.2,0.4
		c0,0.2,0.1,0.3,0.2,0.4c0.1,0.1,0.3,0.3,0.6,0.4l0.6,0.3c0.6,0.4,1,0.9,1,1.5c0,0.4-0.1,0.8-0.4,1c-0.3,0.3-0.7,0.4-1.1,0.4
		c-0.5,0-1-0.2-1.4-0.5v-1c0.4,0.5,0.9,0.8,1.4,0.8c0.2,0,0.4-0.1,0.6-0.2c0.2-0.1,0.2-0.3,0.2-0.5
		C173.4,37.4,173.2,37.1,172.7,36.8z"/>
	<path fill="#3B6E8F" d="M176.9,36.8l-0.6-0.4c-0.4-0.2-0.6-0.4-0.8-0.7c-0.2-0.2-0.2-0.5-0.2-0.7c0-0.4,0.1-0.8,0.4-1
		c0.3-0.3,0.7-0.4,1.1-0.4c0.4,0,0.8,0.1,1.2,0.4v0.9c-0.4-0.4-0.8-0.6-1.2-0.6c-0.2,0-0.5,0.1-0.6,0.2c-0.2,0.1-0.2,0.3-0.2,0.4
		c0,0.2,0.1,0.3,0.2,0.4c0.1,0.1,0.3,0.3,0.6,0.4l0.6,0.3c0.6,0.4,1,0.9,1,1.5c0,0.4-0.1,0.8-0.4,1c-0.3,0.3-0.7,0.4-1.1,0.4
		c-0.5,0-1-0.2-1.4-0.5v-1c0.4,0.5,0.9,0.8,1.4,0.8c0.2,0,0.4-0.1,0.6-0.2c0.2-0.1,0.2-0.3,0.2-0.5
		C177.6,37.4,177.4,37.1,176.9,36.8z"/>
	<path fill="#3B6E8F" d="M182.5,33.7h0.8v4.6h2.4V39h-3.1V33.7z"/>
	<path fill="#3B6E8F" d="M188.7,33.7h0.5l2.4,5.3h-0.8l-0.7-1.6h-2.3l-0.7,1.6h-0.8L188.7,33.7z M189.8,36.8l-0.9-1.9l-0.8,1.9
		H189.8z"/>
	<path fill="#3B6E8F" d="M198.9,33.7h0.8l-2.1,5.3h-0.2l-1.7-4.3l-1.8,4.3h-0.2l-2.1-5.3h0.8l1.5,3.7l1.5-3.7h0.7l1.5,3.7
		L198.9,33.7z"/>
</g>
<g>
	<rect x="0.2" y="23.9" fill="#3B6E8F" width="200" height="0.6"/>
</g>
<rect x="54.3" y="29" fill="#3B6E8F" width="0.6" height="15"/>
<rect x="137.7" y="29" fill="#3B6E8F" width="0.6" height="15"/>
</svg>
