<?xml version="1.0" encoding="utf-8"?>
<!-- Generator: Adobe Illustrator 21.0.0, SVG Export Plug-In . SVG Version: 6.00 Build 0)  -->
<svg version="1.1" id="Layer_1" xmlns="http://www.w3.org/2000/svg" xmlns:xlink="http://www.w3.org/1999/xlink" x="0px" y="0px"
	 viewBox="0 0 222 49" style="enable-background:new 0 0 222 49;" xml:space="preserve">
<style type="text/css">
	.st0{fill:#556476;}
</style>
<g>
	<g>
		<path class="st0" d="M208.3,5l5.2,11.8l4-9.2c0.1-0.3,0.2-0.6,0.2-0.9c0-0.7-0.5-1-1.4-1.1c-0.1,0-0.1-0.1-0.1-0.3
			c0-0.2,0.1-0.3,0.2-0.3c0.3,0,0.7,0,1.2,0.1c0.4,0,0.8,0.1,1.1,0.1c0.3,0,0.7,0,1.1-0.1c0.4,0,0.8-0.1,1.1-0.1
			c0.1,0,0.1,0.1,0.1,0.2c0,0.1,0,0.2-0.1,0.2c-0.1,0.1-0.1,0.1-0.2,0.1c-0.5,0-0.9,0.2-1.3,0.5c-0.3,0.3-0.7,0.8-1,1.6l-5.4,11.8
			c0,0.1-0.1,0.2-0.3,0.2c-0.1,0-0.2-0.1-0.3-0.2l-4.8-11.1l-5,11.1c-0.1,0.1-0.2,0.2-0.3,0.2c-0.2,0-0.3-0.1-0.3-0.2l-5.3-11.8
			c-0.3-0.7-0.7-1.3-1-1.5c-0.4-0.3-0.9-0.5-1.5-0.5c-0.1,0-0.1,0-0.2-0.1c0-0.1-0.1-0.1-0.1-0.2c0-0.2,0.1-0.3,0.2-0.3
			c0.5,0,1,0,1.5,0.1c0.5,0,0.9,0.1,1.3,0.1c0.4,0,0.9,0,1.5-0.1c0.6,0,1.2-0.1,1.6-0.1c0.1,0,0.2,0.1,0.2,0.3c0,0.2,0,0.3-0.1,0.3
			c-0.5,0-0.8,0.1-1.1,0.3c-0.3,0.2-0.4,0.5-0.4,0.8c0,0.2,0.1,0.4,0.2,0.6l4.1,9l5-11.4C208.1,4.8,208.3,5,208.3,5"/>
		<path class="st0" d="M18.3,10.7c0-2.4-0.7-4.3-2.1-5.9c-1.4-1.6-3.1-2.4-5.2-2.4h-0.1L8.3,2.5C7.3,2.5,6.7,3,6.7,4v13.2
			c0,1,0.5,1.5,1.6,1.5l2.5,0.1c2.1,0,3.9-0.8,5.3-2.3C17.6,14.9,18.3,13,18.3,10.7 M21.3,10.7c0,2.7-0.9,4.8-2.8,6.5
			c-1.9,1.6-4.4,2.5-7.5,2.5c-0.4,0-1.2,0-2.4-0.1c-1.2,0-2.1-0.1-2.5-0.1c-1.7,0-3.3,0-4.9,0.1c-0.1,0-0.2-0.1-0.2-0.4
			c0-0.2,0.1-0.3,0.2-0.4c0.7-0.1,1.3-0.2,1.7-0.3c0.4-0.1,0.7-0.3,0.8-0.6C3.9,17.7,4,17.3,4,16.7V4.5c0-0.6-0.1-1-0.2-1.3
			C3.6,3,3.3,2.8,3,2.6C2.6,2.5,2,2.3,1.2,2.3C1.1,2.3,1,2.1,1,1.9c0-0.2,0.1-0.4,0.2-0.4c1.1,0.1,2.7,0.1,4.9,0.1
			c0.4,0,1.2,0,2.5,0c1.2,0,2,0,2.4,0c3.1,0,5.6,0.9,7.4,2.5C20.3,5.8,21.3,8,21.3,10.7"/>
		<path class="st0" d="M28.1,3.7c0,0.8-0.2,1.6-0.5,2.2c-0.3,0.7-0.9,1.3-1.5,1.8c-0.7,0.5-1.1,0.8-1.3,0.8c-0.1,0-0.2-0.1-0.3-0.2
			c-0.1-0.1-0.1-0.2-0.1-0.3l0-0.1c1.5-0.9,2.2-2,2.2-3.3c0-0.4-0.1-0.6-0.2-0.6l-0.2,0c-0.1,0-0.2,0.1-0.3,0.1
			c-0.4,0-0.8-0.2-1.1-0.4c-0.3-0.3-0.4-0.7-0.4-1.1c0-0.4,0.2-0.8,0.5-1.1c0.3-0.3,0.7-0.4,1.1-0.4c0.6,0,1.1,0.2,1.5,0.7
			C27.9,2.4,28.1,3,28.1,3.7"/>
		<path class="st0" d="M36.5,11.5l-2.4-6.6l-2.5,6.6H36.5z M44.7,19.3c0,0.2-0.1,0.4-0.2,0.4c-0.6,0-1.3,0-2.1-0.1
			c-0.7,0-1.3-0.1-1.7-0.1c-0.5,0-1.2,0-2,0.1c-0.9,0.1-1.6,0.1-2.2,0.1c-0.1,0-0.2-0.1-0.2-0.4c0-0.2,0.1-0.4,0.2-0.4
			c0.8,0,1.4-0.1,1.7-0.3c0.4-0.2,0.5-0.4,0.5-0.8c0-0.2-0.1-0.6-0.3-1.1l-1.5-4.4h-5.5l-1.5,4c-0.2,0.5-0.3,1-0.3,1.3
			c0,0.8,0.7,1.2,2.2,1.3c0.1,0,0.2,0.1,0.2,0.4c0,0.2-0.1,0.4-0.2,0.4c-0.5,0-1.1,0-1.8-0.1c-0.6,0-1.2-0.1-1.7-0.1
			c-0.4,0-0.9,0-1.5,0.1c-0.6,0.1-1.1,0.1-1.6,0.1c-0.1,0-0.2-0.1-0.2-0.3c0-0.2,0.1-0.4,0.3-0.4c0.7-0.1,1.3-0.3,1.8-0.6
			c0.4-0.3,0.9-1,1.4-2l6.3-15c0.1-0.1,0.2-0.2,0.4-0.2c0.2,0,0.3,0.1,0.4,0.2l5.6,15c0.3,0.8,0.7,1.5,1.3,1.9
			c0.5,0.4,1.3,0.7,2.1,0.8C44.6,18.9,44.7,19,44.7,19.3"/>
		<path class="st0" d="M65.9,19.3c0,0.2-0.1,0.3-0.2,0.3c-0.5,0-1.1,0-1.7-0.1c-0.7,0-1.2-0.1-1.6-0.1c-0.4,0-1,0-1.6,0.1
			c-0.7,0-1.2,0.1-1.7,0.1c-0.1,0-0.2-0.1-0.2-0.3c0-0.2,0.1-0.3,0.2-0.3c0.8-0.1,1.4-0.2,1.7-0.4c0.3-0.2,0.5-0.6,0.5-1.1v-0.2
			l-0.4-10l-5.2,12.5c0,0.1-0.1,0.2-0.3,0.2c-0.2,0-0.3-0.1-0.3-0.2l-4.9-12l-0.8,9.5c0,0.1,0,0.2,0,0.3c0,0.5,0.2,0.8,0.5,1
			c0.3,0.2,0.9,0.3,1.8,0.4c0.1,0,0.1,0.1,0.1,0.3c0,0.2-0.1,0.3-0.2,0.3c-0.4,0-0.9,0-1.5-0.1c-0.6,0-1.1-0.1-1.4-0.1
			c-0.4,0-0.8,0-1.5,0.1c-0.6,0-1,0.1-1.4,0.1c-0.1,0-0.2-0.1-0.2-0.3c0-0.2,0.1-0.3,0.2-0.3c0.9-0.1,1.5-0.3,1.9-0.5
			c0.3-0.2,0.5-0.6,0.6-1.3l1.1-9.7c0-0.1,0-0.2,0-0.3c0-0.4-0.2-0.8-0.5-1C48.6,6,48,5.9,47.2,5.8c-0.1,0-0.2-0.1-0.2-0.3
			c0-0.1,0-0.1,0.1-0.2c0-0.1,0.1-0.1,0.1-0.1c0.3,0,0.6,0,1.1,0.1c0.4,0,0.7,0.1,0.9,0.1c0.2,0,0.6,0,1.1-0.1
			c0.5,0,0.8-0.1,1.1-0.1L56,16.7l4.7-11.5c0.3,0,0.7,0,1.1,0.1c0.4,0,0.7,0.1,1,0.1c0.3,0,0.7,0,1.1-0.1c0.4,0,0.8-0.1,1.1-0.1
			c0.1,0,0.2,0.1,0.2,0.3c0,0.2-0.1,0.3-0.2,0.3c-0.8,0.1-1.4,0.2-1.7,0.4c-0.3,0.2-0.5,0.6-0.5,1.1v0.2l0.5,9.7
			c0,0.5,0.1,0.8,0.2,1c0.1,0.2,0.4,0.3,0.7,0.5c0.3,0.1,0.8,0.2,1.4,0.3C65.8,19,65.9,19.1,65.9,19.3"/>
		<path class="st0" d="M77.8,15.4c0-1-0.3-1.8-0.9-2.3c-0.6-0.6-1.4-0.8-2.4-0.8h-2.3v5.1c0,0.6,0.2,1.1,0.6,1.3
			c0.4,0.2,1,0.4,1.9,0.4c0.9,0,1.7-0.3,2.3-1C77.5,17.3,77.8,16.4,77.8,15.4 M76.8,8.5c0-0.9-0.2-1.6-0.7-2
			c-0.5-0.4-1.2-0.6-2.2-0.6h-0.4c-0.9,0-1.4,0.4-1.4,1.1v4.5h1.5c1.1,0,1.9-0.2,2.4-0.7C76.5,10.4,76.8,9.6,76.8,8.5 M80.1,15.4
			c0,1.3-0.4,2.3-1.3,3.1c-0.9,0.8-2.1,1.2-3.5,1.2c-0.5,0-1.2,0-2-0.1c-0.8,0-1.5-0.1-1.9-0.1c-0.4,0-1,0-1.8,0.1
			c-0.8,0-1.4,0.1-1.9,0.1c-0.1,0-0.2-0.1-0.2-0.3c0-0.2,0.1-0.3,0.2-0.3c0.9-0.1,1.5-0.3,1.8-0.5c0.3-0.2,0.5-0.6,0.5-1.3V7.5
			c0-0.5-0.1-0.8-0.2-1c-0.1-0.2-0.3-0.4-0.7-0.5c-0.3-0.1-0.8-0.2-1.4-0.3c-0.1,0-0.2-0.1-0.2-0.3c0-0.2,0.1-0.3,0.2-0.3
			c0.5,0,1.1,0,1.8,0.1c0.7,0,1.2,0.1,1.6,0.1c0.4,0,1,0,1.7-0.1c0.7,0,1.4-0.1,1.8-0.1c1.3,0,2.4,0.3,3.2,0.9
			c0.8,0.6,1.2,1.4,1.2,2.4c0,0.7-0.3,1.4-0.9,2c-0.6,0.6-1.4,1-2.2,1.2c1.3,0.2,2.3,0.7,3,1.3C79.8,13.7,80.1,14.5,80.1,15.4"/>
		<path class="st0" d="M91.5,8.9c0-2-0.9-3-2.7-3c-0.6,0-1.1,0-1.4,0.1c-0.3,0.1-0.5,0.2-0.6,0.4c-0.1,0.2-0.2,0.6-0.2,1.1v4.6
			c0.4,0.1,0.9,0.1,1.6,0.1c1.1,0,2-0.3,2.5-0.8C91.3,10.9,91.5,10.1,91.5,8.9 M97,19.3c0,0.2-0.1,0.3-0.2,0.3c-0.3,0-0.7,0-1.3-0.1
			c-0.4,0-0.7-0.1-0.9-0.1c-0.2,0-0.5,0-1,0.1c-0.4,0-0.8,0.1-1,0.1l-3.2-5.1c-0.5-0.7-0.8-1.2-1.1-1.4c-0.3-0.2-0.8-0.3-1.7-0.3
			v4.4c0,0.5,0.1,0.8,0.2,1c0.1,0.2,0.3,0.4,0.7,0.5c0.3,0.1,0.8,0.2,1.4,0.3c0.1,0,0.2,0.1,0.2,0.3c0,0.2-0.1,0.3-0.2,0.3
			c-0.5,0-1,0-1.7-0.1c-0.6,0-1.2-0.1-1.6-0.1c-0.4,0-1,0-1.6,0.1c-0.7,0-1.2,0.1-1.7,0.1c-0.1,0-0.2-0.1-0.2-0.3
			c0-0.2,0.1-0.3,0.2-0.3c0.6-0.1,1-0.2,1.4-0.3c0.3-0.1,0.5-0.3,0.7-0.5c0.1-0.2,0.2-0.5,0.2-1V7.5c0-0.5-0.1-0.8-0.2-1
			c-0.1-0.2-0.3-0.4-0.6-0.5c-0.3-0.1-0.8-0.2-1.4-0.3c-0.1,0-0.2-0.1-0.2-0.3c0-0.2,0.1-0.3,0.2-0.3c0.5,0,1,0,1.7,0.1
			c0.6,0,1.2,0.1,1.6,0.1c0.4,0,1,0,1.6-0.1c0.7,0,1.2-0.1,1.7-0.1c1.6,0,2.8,0.3,3.7,1c0.9,0.6,1.3,1.5,1.3,2.7
			c0,0.7-0.3,1.4-0.9,2c-0.6,0.6-1.4,1.1-2.3,1.5l3.3,5.2c0.3,0.5,0.7,0.8,1.1,1c0.4,0.2,1,0.4,1.7,0.4C96.9,19,97,19.1,97,19.3"/>
		<path class="st0" d="M112.1,5.5c0,0.2-0.1,0.3-0.2,0.3c-0.9,0.1-1.5,0.3-1.8,0.5c-0.3,0.2-0.5,0.6-0.5,1.3V14
			c0,1.8-0.5,3.3-1.4,4.3c-0.9,1-2.2,1.6-3.9,1.6c-1.9,0-3.4-0.5-4.5-1.5c-1.1-1-1.6-2.4-1.6-4.1V7.5c0-0.5-0.1-0.8-0.2-1
			c-0.1-0.2-0.3-0.4-0.6-0.5c-0.3-0.1-0.8-0.2-1.4-0.3c-0.1,0-0.2-0.1-0.2-0.3c0-0.2,0.1-0.3,0.2-0.3c0.5,0,1,0,1.7,0.1
			c0.6,0,1.2,0.1,1.6,0.1c0.4,0,1,0,1.6-0.1c0.7,0,1.2-0.1,1.7-0.1c0.1,0,0.2,0.1,0.2,0.3c0,0.2-0.1,0.3-0.2,0.3
			c-0.6,0.1-1.1,0.2-1.4,0.3c-0.3,0.1-0.5,0.3-0.7,0.5c-0.1,0.2-0.2,0.5-0.2,1v6.5c0,1.7,0.3,2.9,1,3.7c0.7,0.8,1.7,1.2,3.2,1.2
			c2.8,0,4.2-1.7,4.2-5.2V7.5c0-0.6-0.2-1.1-0.5-1.3c-0.3-0.2-0.9-0.4-1.8-0.5c-0.1,0-0.2-0.1-0.2-0.3c0-0.2,0.1-0.3,0.2-0.3
			c0.3,0,0.8,0,1.3,0.1c0.5,0,1,0.1,1.3,0.1c0.3,0,0.8,0,1.3-0.1c0.5,0,1-0.1,1.3-0.1C112,5.2,112.1,5.3,112.1,5.5"/>
		<path class="st0" d="M125.7,12.5c0-2-0.5-3.7-1.5-5c-1-1.3-2.4-1.9-4-1.9c-1.7,0-3,0.6-4,1.9c-1,1.3-1.5,3-1.5,5
			c0,2,0.5,3.7,1.5,4.9c1,1.3,2.3,1.9,4,1.9c1.7,0,3-0.6,4-1.9C125.2,16.1,125.7,14.5,125.7,12.5 M128.1,12.5c0,2.2-0.7,4-2.2,5.4
			c-1.5,1.4-3.4,2.1-5.7,2.1c-2.3,0-4.2-0.7-5.7-2.1c-1.4-1.4-2.2-3.2-2.2-5.4c0-2.2,0.7-4,2.2-5.4c1.5-1.4,3.4-2.1,5.7-2.1
			c2.3,0,4.2,0.7,5.7,2.1C127.4,8.5,128.1,10.3,128.1,12.5"/>
		<path class="st0" d="M139.2,15.4c0,1.4-0.4,2.5-1.3,3.3c-0.8,0.8-2,1.2-3.4,1.2c-0.6,0-1.4-0.1-2.3-0.3c-0.8-0.2-1.5-0.3-2-0.3
			c0-1.2-0.1-2.3-0.3-3.5c0-0.1,0.1-0.2,0.3-0.2c0.1,0,0.2,0.1,0.3,0.2c0.4,1.3,0.9,2.2,1.5,2.7c0.6,0.5,1.4,0.8,2.5,0.8
			c0.9,0,1.5-0.2,2-0.7c0.5-0.5,0.7-1.2,0.7-2c0-0.6-0.2-1.1-0.6-1.6c-0.4-0.5-1.3-1.1-2.6-1.9c-1.5-0.9-2.6-1.6-3-2.2
			s-0.7-1.3-0.7-2c0-1.1,0.4-2.1,1.3-2.8c0.9-0.8,2-1.2,3.3-1.2c0.5,0,1.1,0.1,1.7,0.2c0.6,0.1,1.1,0.2,1.6,0.2
			c0.1,1.2,0.2,2.3,0.3,3.2c0,0.1-0.1,0.2-0.3,0.2c-0.2,0-0.3,0-0.3-0.2c-0.2-1-0.6-1.8-1.1-2.2c-0.5-0.5-1.1-0.7-2-0.7
			c-0.8,0-1.4,0.2-1.9,0.7c-0.5,0.5-0.7,1.1-0.7,1.8c0,0.5,0.2,1,0.6,1.4c0.4,0.4,1.3,1,2.6,1.8c1.6,0.9,2.6,1.6,3.1,2.2
			C139,14.1,139.2,14.7,139.2,15.4"/>
		<path class="st0" d="M155,12.5c0-2-0.5-3.7-1.5-5c-1-1.3-2.3-1.9-4-1.9c-1.7,0-3,0.6-4,1.9c-1,1.3-1.5,3-1.5,5
			c0,2,0.5,3.7,1.5,4.9c1,1.3,2.3,1.9,4,1.9c1.7,0,3-0.6,4-1.9C154.5,16.1,155,14.5,155,12.5 M157.4,12.5c0,2.2-0.7,4-2.2,5.4
			c-1.4,1.4-3.4,2.1-5.7,2.1c-2.3,0-4.2-0.7-5.7-2.1c-1.4-1.4-2.2-3.2-2.2-5.4c0-2.2,0.7-4,2.2-5.4c1.5-1.4,3.4-2.1,5.7-2.1
			c2.3,0,4.2,0.7,5.7,2.1C156.6,8.5,157.4,10.3,157.4,12.5"/>
		<path class="st0" d="M181.2,14.8c-0.4,1.5-0.8,3.1-1,4.8c-3.4-0.1-5.9-0.2-7.3-0.2c-1.4,0-3.9,0.1-7.3,0.2c-0.1,0-0.2-0.1-0.2-0.4
			c0-0.2,0.1-0.3,0.2-0.3c1.1-0.1,1.8-0.3,2.2-0.6c0.4-0.3,0.6-0.8,0.6-1.6V4.4c0-0.6-0.1-1-0.2-1.3c-0.2-0.2-0.4-0.4-0.8-0.6
			c-0.4-0.1-1-0.3-1.7-0.3c-0.1,0-0.2-0.1-0.2-0.4c0-0.2,0.1-0.4,0.2-0.4c0.6,0,1.3,0,2.2,0.1c0.8,0.1,1.5,0.1,2,0.1
			c0.5,0,1.2,0,2-0.1c0.8-0.1,1.5-0.1,2.1-0.1c0.1,0,0.2,0.1,0.2,0.4c0,0.2-0.1,0.4-0.2,0.4c-0.8,0.1-1.3,0.2-1.7,0.3
			c-0.4,0.1-0.7,0.3-0.8,0.6c-0.2,0.2-0.2,0.7-0.2,1.3v12.7c0,1,0.5,1.5,1.6,1.5h2.7c1.1,0,2-0.3,2.8-0.9c0.8-0.6,1.5-1.6,2.3-3.2
			c0-0.1,0.1-0.1,0.3-0.1c0.1,0,0.2,0,0.3,0.1C181.1,14.7,181.2,14.7,181.2,14.8"/>
		<path class="st0" d="M191.3,13.2l-1.9-5.3l-2,5.3H191.3z M197.7,19.3c0,0.2-0.1,0.3-0.2,0.3c-0.5,0-1,0-1.7-0.1
			c-0.5,0-1-0.1-1.4-0.1c-0.4,0-1,0-1.6,0.1c-0.7,0-1.3,0.1-1.7,0.1c-0.1,0-0.2-0.1-0.2-0.3c0-0.2,0-0.3,0.1-0.3
			c0.6,0,1.1-0.1,1.4-0.2c0.3-0.1,0.4-0.3,0.4-0.6c0-0.2-0.1-0.5-0.2-0.9l-1.2-3.5h-4.4l-1.2,3.2c-0.2,0.4-0.2,0.8-0.2,1
			c0,0.6,0.6,0.9,1.7,1c0.1,0,0.1,0.1,0.1,0.3c0,0.2-0.1,0.3-0.2,0.3c-0.4,0-0.9,0-1.4-0.1c-0.5,0-0.9-0.1-1.3-0.1
			c-0.3,0-0.7,0-1.1,0.1c-0.5,0-0.9,0.1-1.2,0.1c-0.1,0-0.2-0.1-0.2-0.3c0-0.2,0.1-0.3,0.2-0.3c0.6-0.1,1.1-0.2,1.4-0.5
			c0.3-0.3,0.7-0.8,1.1-1.6l5-11.9c0-0.1,0.1-0.2,0.3-0.2c0.2,0,0.3,0.1,0.3,0.2l4.4,11.9c0.2,0.7,0.6,1.2,1,1.5
			c0.4,0.3,1,0.5,1.7,0.6C197.7,19,197.7,19.1,197.7,19.3"/>
	</g>
	<polygon class="st0" points="66.9,37 70.2,37 70.2,37.7 67.7,37.7 67.7,39.4 70.1,39.4 70.1,40.1 67.7,40.1 67.7,41.9 70.3,41.9 
		70.3,42.6 66.9,42.6 	"/>
	<g>
		<path class="st0" d="M73.3,40.2l-0.6-0.4c-0.4-0.2-0.7-0.5-0.9-0.7c-0.2-0.2-0.3-0.5-0.3-0.8c0-0.4,0.2-0.8,0.5-1.1
			c0.3-0.3,0.7-0.4,1.2-0.4c0.5,0,0.9,0.1,1.3,0.4v0.9c-0.4-0.4-0.9-0.6-1.4-0.6c-0.3,0-0.5,0.1-0.7,0.2c-0.2,0.1-0.3,0.3-0.3,0.5
			c0,0.2,0.1,0.3,0.2,0.5c0.1,0.1,0.3,0.3,0.6,0.5l0.6,0.4c0.7,0.4,1.1,0.9,1.1,1.6c0,0.5-0.2,0.8-0.5,1.1c-0.3,0.3-0.7,0.4-1.2,0.4
			c-0.6,0-1.1-0.2-1.6-0.5v-1c0.5,0.6,1,0.8,1.6,0.8c0.3,0,0.5-0.1,0.7-0.2c0.2-0.1,0.3-0.3,0.3-0.5C74.1,40.9,73.8,40.6,73.3,40.2"
			/>
	</g>
	<polygon class="st0" points="76,37 80.8,37 80.8,37.7 78.8,37.7 78.8,42.6 78,42.6 78,37.7 76,37.7 	"/>
	<path class="st0" d="M83.3,36.9h0.6l2.6,5.7h-0.9l-0.8-1.7h-2.5l-0.7,1.7h-0.9L83.3,36.9z M84.5,40.2l-0.9-2l-0.9,2H84.5z"/>
	<polygon class="st0" points="86.5,37 91.4,37 91.4,37.7 89.3,37.7 89.3,42.6 88.5,42.6 88.5,37.7 86.5,37.7 	"/>
	<polygon class="st0" points="92.8,37 96.1,37 96.1,37.7 93.7,37.7 93.7,39.4 96,39.4 96,40.1 93.7,40.1 93.7,41.9 96.2,41.9 
		96.2,42.6 92.8,42.6 	"/>
	<g>
		<path class="st0" d="M100.8,42.6V37h1.9c0.6,0,1,0.1,1.3,0.4c0.3,0.3,0.5,0.7,0.5,1.2c0,0.3-0.1,0.6-0.3,0.9
			c-0.2,0.3-0.4,0.4-0.7,0.5c-0.3,0.1-0.7,0.2-1.3,0.2h-0.6v2.4H100.8z M102.5,37.7h-0.9v1.8h0.9c0.3,0,0.6-0.1,0.8-0.2
			c0.2-0.2,0.3-0.4,0.3-0.7C103.6,38,103.2,37.7,102.5,37.7"/>
	</g>
	<polygon class="st0" points="105.9,37 106.7,37 106.7,41.9 109.3,41.9 109.3,42.6 105.9,42.6 	"/>
	<path class="st0" d="M112.6,36.9h0.6l2.6,5.7H115l-0.8-1.7h-2.5l-0.7,1.7h-0.9L112.6,36.9z M113.9,40.2l-0.9-2l-0.9,2H113.9z"/>
	<polygon class="st0" points="121.8,37 122.6,37 122.6,42.6 121.9,42.6 118,38.3 118,42.6 117.2,42.6 117.2,37 117.8,37 121.8,41.4 
			"/>
	<polygon class="st0" points="129.1,37 129.9,37 129.9,42.6 129.2,42.6 125.3,38.3 125.3,42.6 124.5,42.6 124.5,37 125.2,37 
		129.1,41.4 	"/>
	<rect x="131.9" y="37" class="st0" width="0.8" height="5.6"/>
	<polygon class="st0" points="139.3,37 140.1,37 140.1,42.6 139.4,42.6 135.5,38.3 135.5,42.6 134.7,42.6 134.7,37 135.4,37 
		139.3,41.4 	"/>
	<g>
		<path class="st0" d="M145.2,39.8h2v2.4c-0.7,0.3-1.4,0.5-2.1,0.5c-1,0-1.7-0.3-2.3-0.8c-0.6-0.5-0.9-1.2-0.9-2
			c0-0.8,0.3-1.5,0.9-2.1c0.6-0.6,1.3-0.8,2.2-0.8c0.3,0,0.6,0,0.9,0.1c0.3,0.1,0.7,0.2,1.1,0.4v0.8c-0.7-0.4-1.4-0.6-2.1-0.6
			c-0.6,0-1.2,0.2-1.6,0.6c-0.4,0.4-0.7,0.9-0.7,1.5c0,0.6,0.2,1.2,0.7,1.6c0.4,0.4,1,0.6,1.7,0.6c0.3,0,0.7-0.1,1.2-0.2l0.1,0v-1.2
			h-1.1V39.8z"/>
		<path class="st0" d="M1.5,42.6V37h1.5c0.6,0,1.1,0.1,1.4,0.4c0.3,0.3,0.5,0.7,0.5,1.1c0,0.3-0.1,0.6-0.3,0.9
			c-0.2,0.2-0.4,0.4-0.7,0.5c0.2,0.1,0.4,0.3,0.5,0.5c0.2,0.2,0.4,0.6,0.8,1.1c0.2,0.3,0.4,0.6,0.5,0.7L6,42.6H5l-0.3-0.4
			c0,0,0,0,0-0.1L4.5,42l-0.3-0.4L4,41.1c-0.2-0.2-0.3-0.4-0.5-0.6c-0.1-0.1-0.3-0.2-0.4-0.3c-0.1-0.1-0.3-0.1-0.6-0.1H2.3v2.5H1.5z
			 M2.6,37.7H2.3v1.8h0.3c0.4,0,0.7,0,0.9-0.1c0.2-0.1,0.3-0.2,0.4-0.3C3.9,38.9,4,38.7,4,38.5c0-0.2,0-0.3-0.1-0.5
			c-0.1-0.1-0.2-0.2-0.4-0.3C3.3,37.7,3,37.7,2.6,37.7"/>
	</g>
	<polygon class="st0" points="7.3,37 10.6,37 10.6,37.7 8.1,37.7 8.1,39.4 10.5,39.4 10.5,40.1 8.1,40.1 8.1,41.9 10.7,41.9 
		10.7,42.6 7.3,42.6 	"/>
	<path class="st0" d="M14.1,36.9h0.6l2.6,5.7h-0.9l-0.8-1.7h-2.5l-0.7,1.7h-0.9L14.1,36.9z M15.3,40.2l-0.9-2l-0.9,2H15.3z"/>
	<polygon class="st0" points="18.6,37 19.5,37 19.5,41.9 22.1,41.9 22.1,42.6 18.6,42.6 	"/>
	<polygon class="st0" points="26.6,37 29.9,37 29.9,37.7 27.4,37.7 27.4,39.4 29.8,39.4 29.8,40.1 27.4,40.1 27.4,41.9 30,41.9 
		30,42.6 26.6,42.6 	"/>
	<g>
		<path class="st0" d="M33,40.2l-0.6-0.4c-0.4-0.2-0.7-0.5-0.9-0.7c-0.2-0.2-0.3-0.5-0.3-0.8c0-0.4,0.2-0.8,0.5-1.1
			c0.3-0.3,0.7-0.4,1.2-0.4c0.5,0,0.9,0.1,1.3,0.4v0.9c-0.4-0.4-0.9-0.6-1.4-0.6c-0.3,0-0.5,0.1-0.7,0.2c-0.2,0.1-0.3,0.3-0.3,0.5
			c0,0.2,0.1,0.3,0.2,0.5c0.1,0.1,0.3,0.3,0.6,0.5l0.6,0.4c0.7,0.4,1.1,0.9,1.1,1.6c0,0.5-0.2,0.8-0.5,1.1c-0.3,0.3-0.7,0.4-1.2,0.4
			c-0.6,0-1.1-0.2-1.6-0.5v-1c0.5,0.6,1,0.8,1.6,0.8c0.3,0,0.5-0.1,0.7-0.2c0.2-0.1,0.3-0.3,0.3-0.5C33.8,40.9,33.5,40.6,33,40.2"/>
	</g>
	<polygon class="st0" points="35.6,37 40.5,37 40.5,37.7 38.5,37.7 38.5,42.6 37.6,42.6 37.6,37.7 35.6,37.7 	"/>
	<path class="st0" d="M43,36.9h0.6l2.6,5.7h-0.9l-0.8-1.7h-2.5l-0.7,1.7h-0.9L43,36.9z M44.2,40.2l-0.9-2l-0.9,2H44.2z"/>
	<polygon class="st0" points="46.2,37 51,37 51,37.7 49,37.7 49,42.6 48.2,42.6 48.2,37.7 46.2,37.7 	"/>
	<polygon class="st0" points="52.5,37 55.8,37 55.8,37.7 53.3,37.7 53.3,39.4 55.7,39.4 55.7,40.1 53.3,40.1 53.3,41.9 55.9,41.9 
		55.9,42.6 52.5,42.6 	"/>
	<g>
		<path class="st0" d="M159.4,42.6h-2V37h1.5c0.5,0,0.9,0.1,1.1,0.2c0.3,0.1,0.5,0.3,0.6,0.5c0.1,0.2,0.2,0.5,0.2,0.8
			c0,0.6-0.3,1-0.9,1.2c0.4,0.1,0.8,0.2,1,0.5c0.3,0.3,0.4,0.6,0.4,0.9c0,0.3-0.1,0.5-0.2,0.8c-0.2,0.2-0.4,0.4-0.7,0.6
			C160.2,42.5,159.9,42.6,159.4,42.6 M159,37.7h-0.7v1.7h0.6c0.4,0,0.8-0.1,0.9-0.2c0.2-0.2,0.3-0.4,0.3-0.6
			C160.1,38,159.7,37.7,159,37.7 M159,40.1h-0.8v1.8h0.8c0.5,0,0.8,0,0.9-0.1c0.2-0.1,0.3-0.2,0.4-0.3c0.1-0.1,0.1-0.3,0.1-0.5
			c0-0.2-0.1-0.3-0.2-0.5c-0.1-0.1-0.3-0.2-0.4-0.3C159.8,40.1,159.5,40.1,159,40.1"/>
		<path class="st0" d="M167,37h0.8v3.2c0,0.4,0,0.8-0.1,1c-0.1,0.2-0.1,0.4-0.2,0.5c-0.1,0.1-0.2,0.3-0.4,0.4
			c-0.5,0.4-1.1,0.6-1.8,0.6c-0.8,0-1.4-0.2-1.8-0.6c-0.1-0.1-0.3-0.3-0.4-0.4c-0.1-0.1-0.2-0.3-0.2-0.5c-0.1-0.2-0.1-0.5-0.1-1V37
			h0.8v3.2c0,0.5,0.1,0.9,0.2,1.1c0.1,0.2,0.3,0.4,0.6,0.5c0.3,0.1,0.6,0.2,0.9,0.2c0.5,0,0.9-0.1,1.2-0.4c0.2-0.1,0.3-0.3,0.4-0.5
			c0.1-0.2,0.1-0.5,0.1-0.9V37z"/>
		<path class="st0" d="M171.1,40.2l-0.6-0.4c-0.4-0.2-0.7-0.5-0.9-0.7c-0.2-0.2-0.3-0.5-0.3-0.8c0-0.4,0.2-0.8,0.5-1.1
			c0.3-0.3,0.7-0.4,1.2-0.4c0.5,0,0.9,0.1,1.3,0.4v0.9c-0.4-0.4-0.9-0.6-1.4-0.6c-0.3,0-0.5,0.1-0.7,0.2c-0.2,0.1-0.3,0.3-0.3,0.5
			c0,0.2,0.1,0.3,0.2,0.5c0.1,0.1,0.3,0.3,0.6,0.5l0.6,0.4c0.7,0.4,1.1,0.9,1.1,1.6c0,0.5-0.2,0.8-0.5,1.1c-0.3,0.3-0.7,0.4-1.2,0.4
			c-0.6,0-1.1-0.2-1.6-0.5v-1c0.5,0.6,1,0.8,1.6,0.8c0.3,0,0.5-0.1,0.7-0.2c0.2-0.1,0.3-0.3,0.3-0.5
			C171.9,40.9,171.6,40.6,171.1,40.2"/>
	</g>
	<rect x="174.3" y="37" class="st0" width="0.8" height="5.6"/>
	<polygon class="st0" points="181.7,37 182.5,37 182.5,42.6 181.8,42.6 177.9,38.3 177.9,42.6 177.1,42.6 177.1,37 177.8,37 
		181.7,41.4 	"/>
	<polygon class="st0" points="184.5,37 187.8,37 187.8,37.7 185.3,37.7 185.3,39.4 187.7,39.4 187.7,40.1 185.3,40.1 185.3,41.9 
		187.8,41.9 187.8,42.6 184.5,42.6 	"/>
	<g>
		<path class="st0" d="M190.9,40.2l-0.6-0.4c-0.4-0.2-0.7-0.5-0.9-0.7c-0.2-0.2-0.3-0.5-0.3-0.8c0-0.4,0.2-0.8,0.5-1.1
			c0.3-0.3,0.7-0.4,1.2-0.4c0.5,0,0.9,0.1,1.3,0.4v0.9c-0.4-0.4-0.9-0.6-1.4-0.6c-0.3,0-0.5,0.1-0.7,0.2c-0.2,0.1-0.3,0.3-0.3,0.5
			c0,0.2,0.1,0.3,0.2,0.5c0.1,0.1,0.3,0.3,0.6,0.5l0.6,0.4c0.7,0.4,1.1,0.9,1.1,1.6c0,0.5-0.2,0.8-0.5,1.1c-0.3,0.3-0.7,0.4-1.2,0.4
			c-0.6,0-1.1-0.2-1.6-0.5v-1c0.5,0.6,1,0.8,1.6,0.8c0.3,0,0.5-0.1,0.7-0.2c0.2-0.1,0.3-0.3,0.3-0.5
			C191.6,40.9,191.4,40.6,190.9,40.2"/>
		<path class="st0" d="M195.5,40.2l-0.6-0.4c-0.4-0.2-0.7-0.5-0.9-0.7c-0.2-0.2-0.3-0.5-0.3-0.8c0-0.4,0.2-0.8,0.5-1.1
			c0.3-0.3,0.7-0.4,1.2-0.4c0.5,0,0.9,0.1,1.3,0.4v0.9c-0.4-0.4-0.9-0.6-1.4-0.6c-0.3,0-0.5,0.1-0.7,0.2c-0.2,0.1-0.3,0.3-0.3,0.5
			c0,0.2,0.1,0.3,0.2,0.5c0.1,0.1,0.3,0.3,0.6,0.5l0.6,0.4c0.7,0.4,1.1,0.9,1.1,1.6c0,0.5-0.2,0.8-0.5,1.1c-0.3,0.3-0.7,0.4-1.2,0.4
			c-0.6,0-1.1-0.2-1.6-0.5v-1c0.5,0.6,1,0.8,1.6,0.8c0.3,0,0.5-0.1,0.7-0.2c0.2-0.1,0.3-0.3,0.3-0.5C196.2,40.9,196,40.6,195.5,40.2
			"/>
	</g>
	<polygon class="st0" points="201.7,37 202.5,37 202.5,41.9 205.1,41.9 205.1,42.6 201.7,42.6 	"/>
	<path class="st0" d="M208.4,36.9h0.6l2.6,5.7h-0.9l-0.8-1.7h-2.5l-0.7,1.7h-0.9L208.4,36.9z M209.6,40.2l-0.9-2l-0.9,2H209.6z"/>
	<polygon class="st0" points="219.7,37 218.1,40.9 216.5,37 215.7,37 214.1,40.9 212.4,37 211.6,37 214,42.6 214.1,42.6 216.1,38 
		218,42.6 218.2,42.6 220.5,37 	"/>
	<path class="st0" d="M60.7,47.9h0.7V32h-0.7V47.9z M152.2,47.9h0.7V32h-0.7V47.9z M1.2,27.2h218.3v-0.7H1.2V27.2z"/>
</g>
</svg>
