<?xml version="1.0" encoding="utf-8"?>
<!-- Generator: Adobe Illustrator 21.0.2, SVG Export Plug-In . SVG Version: 6.00 Build 0)  -->
<svg version="1.1" id="Layer_1" xmlns="http://www.w3.org/2000/svg" xmlns:xlink="http://www.w3.org/1999/xlink" x="0px" y="0px"
	 viewBox="0 0 15.4 15.4" style="enable-background:new 0 0 15.4 15.4;" xml:space="preserve">
<style type="text/css">
	.st0{fill:#AAB1BB;}
</style>
<path class="st0" d="M15.4,2.9v9.6c0,1.6-1.3,2.9-2.9,2.9h-1.9v-6h2l0.3-2.3h-2.3V5.6c0-0.7,0.2-1.1,1.2-1.1H13V2.4
	c-0.2,0-0.9-0.1-1.8-0.1c-1.8,0-3,1.1-3,3.1v1.7h-2v2.3h2v6H2.9c-1.6,0-2.9-1.3-2.9-2.9V2.9C0,1.3,1.3,0,2.9,0h9.6
	C14.1,0,15.4,1.3,15.4,2.9z"/>
</svg>
